<svg id="Layer_1" enable-background="new 0 0 480 480" height="512" viewBox="0 0 480 480" width="512" xmlns="http://www.w3.org/2000/svg"><path d="m480 103v274c0 22.056-17.944 40-40 40h-400c-22.056 0-40-17.944-40-40v-120c0-4.418 3.582-8 8-8s8 3.582 8 8v120c0 13.233 10.767 24 24 24h400c13.233 0 24-10.767 24-24v-274c0-13.233-10.767-24-24-24h-400c-13.233 0-24 10.767-24 24v32h410c4.418 0 8 3.582 8 8s-3.582 8-8 8h-410v52h410c4.418 0 8 3.582 8 8s-3.582 8-8 8h-418c-4.418 0-8-3.582-8-8v-108c0-22.056 17.944-40 40-40h400c22.056 0 40 17.944 40 40zm-64 208c0-20.537-22.83-32.992-40.125-21.817 16.971 27.8-3.117 63.817-35.875 63.817-23.159 0-42-18.841-42-42 0-34.467 39.438-54.21 67-33.726 27.685-20.479 67-.677 67 33.726 0 23.159-18.841 42-42 42-4.418 0-8-3.582-8-8s3.582-8 8-8c14.337 0 26-11.663 26-26zm-50 0c0-14.337-11.663-26-26-26s-26 11.663-26 26 11.663 26 26 26 26-11.663 26-26zm-293-17h67c4.418 0 8-3.582 8-8s-3.582-8-8-8h-67c-4.418 0-8 3.582-8 8s3.582 8 8 8zm0 50h67c4.418 0 8-3.582 8-8s-3.582-8-8-8h-67c-4.418 0-8 3.582-8 8s3.582 8 8 8z"/></svg>