<?xml version="1.0"?>
<svg xmlns="http://www.w3.org/2000/svg" xmlns:xlink="http://www.w3.org/1999/xlink" version="1.1" id="Capa_1" x="0px" y="0px" viewBox="0 0 512 512" style="enable-background:new 0 0 512 512;" xml:space="preserve" width="512px" height="512px" class=""><g><g>
	<g>
		<path d="M489.17,140.764l-5.696-3.289l22.5-38.971c12.406-21.489,5.018-49.064-16.471-61.471    c-21.536-12.435-49.034-5.071-61.471,16.471l-29.468,51.039l-6.557,8.353V75c0-24.813-20.187-45-45-45h-15V15    c0-8.284-6.716-15-15-15s-15,6.716-15,15v15h-30V15c0-8.284-6.716-15-15-15s-15,6.716-15,15v15h-31V15c0-8.284-6.716-15-15-15    s-15,6.716-15,15v15h-30V15c0-8.284-6.716-15-15-15s-15,6.716-15,15v15h-31V15c0-8.284-6.716-15-15-15s-15,6.716-15,15v15h-15    c-24.813,0-45,20.187-45,45v392c0.001,24.813,20.188,45,45.001,45h302c24.813,0,45-20.187,45-45V337.408    c7.768-10.137,14.691-20.937,20.701-32.317c-1.35,7.53-2.274,15.161-2.736,22.861c-0.497,8.27,5.805,15.375,14.074,15.872    c0.306,0.018,0.609,0.027,0.912,0.027c7.873,0,14.481-6.139,14.959-14.102c4.474-74.526,54.317-112.06,59.102-118.734    C519.358,189.982,514.55,155.418,489.17,140.764z M30.008,75c0-8.271,6.729-15,15-15h15v15c0,8.284,6.716,15,15,15s15-6.716,15-15    V60h31v15c0,8.284,6.716,15,15,15s15-6.716,15-15V60h30v15c0,8.284,6.716,15,15,15s15-6.716,15-15V60h31v15    c0,8.284,6.716,15,15,15s15-6.716,15-15V60h30v15c0,8.284,6.716,15,15,15s15-6.716,15-15V60h15c8.271,0,15,6.729,15,15v46h-332V75    z M362.007,467c0.001,8.271-6.727,15-14.999,15h-302c-8.271,0-15-6.729-15-15V151h332.091l-52.437,66.803    c-28.991,36.933-45.801,81.226-48.612,128.091c0,0,0,0,0,0.001l-3.807,63.427l-13.23,22.915c-4.143,7.174-1.685,16.348,5.49,20.49    c7.143,4.125,16.33,1.715,20.49-5.49l13.229-22.915l53.025-35.01c9.1-6.008,17.696-12.608,25.76-19.736V467z M290.458,356.642    c4.445-1.024,9.123-0.335,13.315,2.085c4.193,2.421,7.129,6.131,8.463,10.489l-23.463,15.492L290.458,356.642z M395.032,271.99    c-7.33,18.264-17.187,35.134-29.24,50.236c-0.343,0.386-0.666,0.789-0.968,1.209c-8.264,10.189-17.542,19.553-27.731,27.976    c-4.182-7.618-10.429-14.109-18.32-18.665c-7.891-4.556-16.636-6.721-25.324-6.534c5.526-32.745,19.084-63.48,39.81-89.886    l81.529-103.865l29.428,16.991L395.032,271.99z M477.452,190.162c-8.725,9.4-19.408,18.687-31.759,36.149l24.768-61.707    l3.708,2.141C482.615,171.621,484.245,183.14,477.452,190.162z M479.993,83.505l-22.5,38.971l-25.98-15l22.5-38.971    c4.146-7.178,13.308-9.636,20.49-5.49C481.666,67.151,484.129,76.342,479.993,83.505z" data-original="#000000" class="active-path" data-old_color="#000000" fill="#00B6D9"/>
	</g>
</g><g>
	<g>
		<path d="M196.008,391h-121c-8.284,0-15,6.716-15,15s6.716,15,15,15h121c8.284,0,15-6.716,15-15S204.292,391,196.008,391z" data-original="#000000" class="active-path" data-old_color="#000000" fill="#00B6D9"/>
	</g>
</g><g>
	<g>
		<path d="M166.008,301h-91c-8.284,0-15,6.716-15,15s6.716,15,15,15h91c8.284,0,15-6.716,15-15S174.292,301,166.008,301z" data-original="#000000" class="active-path" data-old_color="#000000" fill="#00B6D9"/>
	</g>
</g><g>
	<g>
		<path d="M136.008,211h-61c-8.284,0-15,6.716-15,15s6.716,15,15,15h61c8.284,0,15-6.716,15-15S144.292,211,136.008,211z" data-original="#000000" class="active-path" data-old_color="#000000" fill="#00B6D9"/>
	</g>
</g></g> </svg>
