<?xml version="1.0"?>
<svg xmlns="http://www.w3.org/2000/svg" xmlns:xlink="http://www.w3.org/1999/xlink" version="1.1" id="Capa_1" x="0px" y="0px" viewBox="0 0 512 512" style="enable-background:new 0 0 512 512;" xml:space="preserve" width="512px" height="512px"><g><g>
	<g>
		<path d="M189.312,197.461c-1.109-1.451-1.92-2.944-2.752-4.416l-11.243,11.243c-0.704,0.32-1.344,0.725-1.877,1.152    c-3.712,2.901-7.424,8.875-10.027,24.363l-30.635-15.317c-5.269-2.603-11.669-0.491-14.315,4.779    c-2.624,5.269-0.491,11.669,4.779,14.315l37.76,18.88C160.384,262.165,160,273.664,160,288c0,3.648,0.213,7.147,0.384,10.667H128    c-5.888,0-10.667,4.779-10.667,10.667S122.112,320,128,320h34.517c2.112,13.269,5.504,25.472,9.877,36.523l-30.592,30.592    c-4.16,4.16-4.16,10.923,0,15.083c2.069,2.091,4.8,3.136,7.531,3.136c2.731,0,5.461-1.045,7.552-3.115l25.451-25.451    c16.32,27.648,39.595,44.864,63.019,48.917V224c0-1.216,0.32-2.368,0.704-3.456C219.2,218.965,199.829,211.477,189.312,197.461z" data-original="#000000" class="active-path" data-old_color="#000000" fill="#48486E"/>
	</g>
</g><g>
	<g>
		<path d="M307.029,174.208l-18.88-37.781c0.768-13.973,5.44-29.76,10.517-29.76c5.888,0,10.667-4.779,10.667-10.667    s-4.779-10.667-10.667-10.667c-22.592,0-29.227,26.987-31.189,42.667h-22.976c-1.941-15.68-8.576-42.667-31.168-42.667    c-5.888,0-10.667,4.779-10.667,10.667s4.779,10.667,10.667,10.667c5.035,0,9.728,15.787,10.517,29.781l-19.285,38.571    l-1.749,1.749c0.619,2.645,1.621,5.397,3.691,8.107c7.552,9.813,24.64,15.019,49.472,15.019c25.003,0,42.176-5.269,49.643-15.211    c2.005-2.645,2.965-5.312,3.584-7.893l-1.536-1.536C307.435,174.912,307.307,174.507,307.029,174.208z" data-original="#000000" class="active-path" data-old_color="#000000" fill="#48486E"/>
	</g>
</g><g>
	<g>
		<path d="M384,298.667h-32.384c0.171-3.52,0.384-7.019,0.384-10.667c0-14.336-0.384-25.835-1.003-35.584l37.76-18.88    c5.269-2.645,7.403-9.045,4.779-14.315c-2.645-5.291-9.024-7.403-14.315-4.779l-30.635,15.317    c-2.603-15.467-6.315-21.461-10.027-24.363c-0.533-0.427-1.173-0.811-1.877-1.152l-11.243-11.243    c-0.853,1.493-1.643,2.965-2.731,4.437c-10.496,13.995-29.888,21.504-56.747,23.083c0.384,1.131,0.704,2.261,0.704,3.477v201.685    c23.424-4.075,46.699-21.269,63.019-48.917l25.451,25.451c2.069,2.069,4.8,3.115,7.531,3.115s5.461-1.045,7.552-3.115    c4.16-4.16,4.16-10.923,0-15.083l-30.592-30.592c4.395-11.051,7.787-23.253,9.877-36.523H384c5.888,0,10.667-4.779,10.667-10.667    S389.888,298.667,384,298.667z" data-original="#000000" class="active-path" data-old_color="#000000" fill="#48486E"/>
	</g>
</g><g>
	<g>
		<path d="M472.405,64.448l-213.333-64c-2.005-0.597-4.117-0.597-6.123,0l-213.333,64C35.093,65.813,32,69.952,32,74.667v234.667    c0,94.336,143.829,178.219,220.843,202.197c1.003,0.32,2.091,0.469,3.157,0.469s2.155-0.149,3.157-0.469    C336.171,487.573,480,403.669,480,309.333V74.667C480,69.952,476.907,65.813,472.405,64.448z M381.845,268.928    c0.597,4.523,4.011,8.149,8.469,9.045C405.184,280.96,416,294.144,416,309.333c0,17.643-14.357,32-32,32h-3.669    c-4.309,0-8.213,2.603-9.856,6.592s-0.725,8.576,2.304,11.627l12.501,12.501c6.037,6.037,9.365,14.08,9.365,22.635    s-3.328,16.576-9.365,22.635c-12.011,12.011-32.853,12.16-45.035,0.149c-4.117-4.075-10.752-4.096-14.912-0.043    c-40.661,39.445-98.005,39.445-138.667-0.021c-2.091-2.005-4.757-3.008-7.445-3.008c-2.709,0-5.419,1.024-7.488,3.072    c-12.16,11.989-33.067,11.819-45.035-0.149c-6.037-6.08-9.365-14.101-9.365-22.656s3.328-16.576,9.365-22.635l12.501-12.501    c3.051-3.051,3.968-7.637,2.304-11.627s-5.525-6.571-9.835-6.571H128c-17.643,0-32-14.357-32-32    c0-15.189,10.816-28.395,25.685-31.36c4.48-0.896,7.872-4.523,8.469-9.045c0.619-4.523-1.707-8.917-5.781-10.965l-10.688-5.333    c-15.787-7.893-22.208-27.157-14.315-42.944c7.659-15.36,26.219-22.677,43.392-14.08c4.331,2.176,9.557,1.152,12.757-2.453    c1.451-1.643,3.029-3.157,4.608-4.416c0.427-0.299,2.283-1.749,2.645-2.091l23.019-23.019c0.811-0.811,1.472-1.749,2.005-2.773    l12.117-24.256c2.432-4.885,0.811-10.795-3.776-13.739c-9.259-5.973-14.805-16-14.805-26.859c0-17.643,14.357-32,32-32    c13.504,0,25.152,5.547,34.603,16.491c4.032,4.715,12.075,4.715,16.128,0C273.515,69.547,285.163,64,298.667,64    c17.643,0,32,14.357,32,32c0,10.859-5.547,20.885-14.805,26.859c-4.587,2.944-6.208,8.875-3.776,13.739l12.117,24.256    c0.512,1.024,1.195,1.963,2.005,2.773l23.019,23.019c0.32,0.32,2.155,1.707,2.496,1.984c1.728,1.344,3.285,2.88,4.757,4.523    c3.221,3.605,8.896,4.395,13.205,2.219c15.552-7.765,35.243-1.088,42.944,14.315c7.893,15.787,1.472,35.051-14.315,42.944    l-10.688,5.333C383.552,260.011,381.205,264.405,381.845,268.928z" data-original="#000000" class="active-path" data-old_color="#000000" fill="#48486E"/>
	</g>
</g></g> </svg>
