<svg xmlns="http://www.w3.org/2000/svg" width="65.148" height="37" viewBox="0 0 65.148 37"><defs><style>.a{fill:#ffc107;}.b{fill:#fff;}</style></defs><g transform="translate(18.385 90.443) rotate(-90)"><path class="a" d="M88.807,27.562,72.935,43.436V.974a.974.974,0,0,0-1.948,0V43.436L55.115,27.562a.974.974,0,0,0-1.378,1.377L71.273,46.476a.974.974,0,0,0,1.378,0l0,0L90.189,28.94a.974.974,0,0,0-1.378-1.378Z" transform="translate(-0.019)"/><path class="b" d="M71.942,318.279a.974.974,0,0,1-.69-.284L53.716,300.459a.974.974,0,0,1,1.377-1.378l16.848,16.846,16.846-16.846a.974.974,0,0,1,1.378,1.378L72.629,317.995A.974.974,0,0,1,71.942,318.279Z" transform="translate(0 -271.517)"/><path class="b" d="M246.3,65.148c-.538,0-.974-.608-.974-1.357V1.357c0-.75.436-1.357.974-1.357s.974.608.974,1.357V63.79C247.27,64.54,246.834,65.148,246.3,65.148Z" transform="translate(-174.355 -18.385)"/></g></svg>