<svg xmlns="http://www.w3.org/2000/svg" xmlns:xlink="http://www.w3.org/1999/xlink" width="700" height="700" viewBox="0 0 700 700"><defs><style>.a{clip-path:url(#a);}.b{fill:#ececec;}.c{fill:#e1e1e1;}.d{fill:#fff;}.e{fill:#f5f5f5;}.f{fill:#1a2e35;}.g{fill:#ff4f5b;}.h{fill:#ffbf9d;}.i{fill:#ff9a6c;}.j{opacity:0.3;clip-path:url(#f);}.k{opacity:0.4;clip-path:url(#g);}.l{opacity:0.5;clip-path:url(#h);}.m{fill:#fafafa;}</style><clipPath id="a"><path d="M0-666.665H700v700H0Z" transform="translate(0 666.665)"/></clipPath><clipPath id="f"><path d="M397.038-386.3H448.6v130.262H397.038Z" transform="translate(-397.038 386.299)"/></clipPath><clipPath id="g"><path d="M445.763-386.3H496.95v130.262H445.763Z" transform="translate(-445.763 386.299)"/></clipPath><clipPath id="h"><path d="M430.764-352.364h32.306v45.655H430.764Z" transform="translate(-430.764 352.364)"/></clipPath></defs><g transform="translate(0 666.665)"><g transform="translate(0 -666.665)"><g class="a"><g transform="translate(42.549 426.274)"><path class="b" d="M4.59,6.372C23.96-9.477,26.468-36.136,23.725-59.688c-.458-3.931-.36-8.124-2.542-11.427s-6.81-5.3-10.252-3.343c-2.852,1.621-3.867,5.134-5.3,8.088a23.336,23.336,0,0,1-8.645,9.6c-2.437,1.512-5.519,2.568-8.142,1.407-3.6-1.59-4.389-6.255-4.686-10.181l-1.655-21.934c-.3-3.924-.61-7.927-2.152-11.547s-4.551-6.853-8.417-7.587-8.364,1.8-8.848,5.708c-.2,1.624.265,3.255.288,4.892s-.6,3.5-2.129,4.085c-1.547.589-3.227-.392-4.509-1.441-4.424-3.622-7.624-8.494-10.64-13.35s-5.964-9.842-10.038-13.853-9.5-7.01-15.215-6.859-11.494,4.116-12.481,9.75,2.737,10.984,6.658,15.166A88.4,88.4,0,0,0-65.092-86.661c1.324.774,2.759,1.61,3.357,3.023,1.077,2.542-1.221,5.347-3.765,6.422-2.884,1.217-6.121,1.179-9.188,1.793S-81-73.182-81.938-70.2c-1.3,4.144,2.442,8.063,6.007,10.539A76.439,76.439,0,0,0-52.4-48.7c3.01.816,6.16,1.488,8.683,3.319s4.234,5.239,3.037,8.119-4.781,4.067-7.889,3.76-5.981-1.723-8.988-2.568c-5.625-1.585-12.645-.633-15.761,4.313-2.048,3.249-1.9,7.531-.44,11.084s4.074,6.5,6.814,9.192c9.58,9.414,21.449,16.647,34.468,19.936s24.851,3.5,37.066-2.083" transform="translate(91.796 127.432)"/></g><g transform="translate(48.01 430.177)"><path class="c" d="M4.411,7.019A171,171,0,0,0-4.735-24.748,350.314,350.314,0,0,0-21.962-61.4q-2.541-4.748-5.016-9.377c-1.653-3.077-3.29-6.124-5.081-9.008A175.843,175.843,0,0,0-43.3-95.775c-3.826-4.914-7.64-9.439-11.236-13.646s-7.042-8.053-10.326-11.432a141.174,141.174,0,0,0-16.677-14.792c-2.1-1.589-3.77-2.771-4.913-3.557l-1.3-.888c-.3-.2-.455-.284-.455-.284s.136.122.42.335l1.268.934c1.117.819,2.765,2.029,4.84,3.644a147.418,147.418,0,0,1,16.516,14.9c3.256,3.389,6.668,7.251,10.255,11.46s7.371,8.75,11.178,13.661A176.882,176.882,0,0,1-32.555-79.484c1.778,2.873,3.4,5.9,5.055,8.982l5.012,9.376A357.464,357.464,0,0,1-5.245-24.55,173.6,173.6,0,0,1,4,7.093" transform="translate(88.213 140.374)"/></g><g transform="translate(103.979 447.098)"><path class="c" d="M0,2.077A9.558,9.558,0,0,0,.227.371C.337-.73.451-2.327.564-4.3c.23-3.949.368-9.415.505-15.443s.371-11.481.686-15.417c.151-1.968.294-3.562.409-4.659a9.4,9.4,0,0,0,.108-1.716,9.7,9.7,0,0,0-.337,1.687c-.185,1.092-.392,2.682-.6,4.651C.913-31.264.613-25.8.475-19.763.347-13.786.232-8.379.144-4.321.085-2.431.034-.857,0,.357A9.6,9.6,0,0,0,0,2.077" transform="translate(0.03 41.54)"/></g><g transform="translate(52.162 485.19)"><path class="c" d="M0,.015A1.832,1.832,0,0,0,.532.057l1.523,0c1.322,0,3.231-.01,5.592.06,4.719.1,11.236.473,18.4,1.2s13.625,1.7,18.274,2.527c2.327.4,4.2.774,5.5,1.029.592.112,1.086.206,1.5.286a1.8,1.8,0,0,0,.531.059,1.814,1.814,0,0,0-.5-.176l-1.471-.395c-1.282-.322-3.147-.762-5.471-1.215C39.763,2.5,33.3,1.481,26.11.735S12.387-.306,7.652-.3c-2.366-.014-4.281.055-5.6.129L.528-.063A1.829,1.829,0,0,0,0,.015" transform="translate(0 0.3)"/></g><g transform="translate(130.839 478.395)"><path class="c" d="M0,3.167A3.087,3.087,0,0,0,.286,2.52C.472,2.026.707,1.4,1,.621c.613-1.652,1.443-4.064,2.43-7.055C5.41-12.416,7.891-20.76,10.51-30s5.036-17.6,6.91-23.607c.932-2.946,1.7-5.356,2.248-7.108.249-.79.451-1.431.608-1.933a3.147,3.147,0,0,0,.174-.689,3.162,3.162,0,0,0-.287.65c-.185.493-.42,1.123-.713,1.9-.613,1.652-1.442,4.063-2.429,7.055C15.04-47.756,12.56-39.412,9.94-30.165S4.9-12.57,3.03-6.561C2.1-3.617,1.334-1.206.781.545.532,1.336.332,1.977.175,2.481A3.076,3.076,0,0,0,0,3.167" transform="translate(0.003 63.34)"/></g><g transform="translate(61.202 528.901)"><path class="c" d="M0,0A3.5,3.5,0,0,0,.7.206L2.726.682l7.465,1.7c6.3,1.446,14.977,3.552,24.557,5.9s18.284,4.392,24.612,5.734c3.165.672,5.729,1.191,7.507,1.519l2.051.367A3.306,3.306,0,0,0,69.64,16a3.415,3.415,0,0,0-.7-.206l-2.027-.476-7.463-1.7c-6.3-1.448-14.977-3.553-24.562-5.9S16.608,3.318,10.282,1.976C7.118,1.305,4.553.784,2.773.457L.724.087A3.352,3.352,0,0,0,0,0" transform="translate(0 0.006)"/></g><g transform="translate(221.647 160.015)"><path class="d" d="M5.8,3.249-95.424,33.7-115.95-34.523-14.729-64.977Z" transform="translate(115.95 64.977)"/></g><g transform="translate(221.194 159.651)"><path class="c" d="M5.819,3.266s-.151-.431-.409-1.247Q5.022.761,4.293-1.585C3.319-4.76,1.9-9.388.088-15.3c-3.6-11.851-8.775-28.857-15.074-49.573l.363.2L-115.815-34.158h-.008l.245-.454c7.305,24.321,14.251,47.443,20.5,68.235L-95.5,33.4-22.57,11.631-1.7,5.445,3.869,3.812,5.314,3.4c.328-.091.505-.132.505-.132s-.146.057-.456.158c-.336.1-.8.251-1.4.441l-5.48,1.69c-4.838,1.478-11.869,3.626-20.749,6.336L-95.305,34.04l-.319.1-.1-.321c-6.264-20.784-13.23-43.9-20.556-68.216l-.1-.349.349-.1.008,0c38.116-11.439,73.291-22,101.234-30.383l.28-.084.084.28C-8.23-44.217-3.141-27.123.406-15.209,2.149-9.3,3.514-4.681,4.449-1.51Q5.127.814,5.49,2.061c.23.8.329,1.205.329,1.205" transform="translate(116.382 65.324)"/></g><g transform="translate(221.647 160.014)"><path class="c" d="M4.82,0a1.2,1.2,0,0,1-.141.308c-.126.232-.281.517-.473.868q-.689,1.21-1.883,3.308C.627,7.4-1.775,11.523-4.74,16.619-10.8,26.9-19.155,41.063-28.462,56.848l-.157.266L-28.907,57l-3.1-1.2L-77.6,38.018l-13.786-5.467q-2.369-.964-3.734-1.52l-.965-.413a1.407,1.407,0,0,1-.321-.164,1.234,1.234,0,0,1,.347.094l.99.344,3.784,1.394,13.87,5.25,45.668,17.585,3.1,1.2-.445.154C-19.7,40.737-11.284,26.613-5.174,16.363L2.085,4.343q1.266-2.054,2-3.24L4.617.27A1.286,1.286,0,0,1,4.82,0" transform="translate(96.401 0)"/></g><g transform="translate(505.266 431.242)"><path class="b" d="M5.338.061s-6.559-6.5-19.368,9.733S-32.4,35.75-32.4,35.75s-3.188,3.3-5.295.309S-41.968,25.338-46.64,25.72c-4.844.4-7.374,5.212-8,12.9s-2.61,24.493-2.794,26.012c-.182,1.49-1.455,3.486-3.217,1.677S-71.547,49.086-78.6,53.86-83.88,80.348-83.73,82.726s-.484,3.252-1.669,3.6-3.766-5.127-6.545-9.407-6.751-8.753-10.591-5.659-7.9,18.313,1.775,46.27l5.333,12.662,13.663,1.943c29.492,2.376,43.207-5.365,45.244-9.859s-3.291-7.218-8.13-8.84-10.781-2.75-10.745-3.982.729-2.066,3.069-2.517,23.806-4.157,26.662-12.184-14.358-13.016-16.551-14.27-.577-2.983.82-3.534c1.424-.559,17.193-6.685,24.485-9.213S-5.592,61.552-6.418,56.761c-.8-4.619-8.823-4.778-12.249-6.07s-1.026-5.2-1.026-5.2S-11.669,37.665.841,21.2,5.2-.062,5.2-.062" transform="translate(106.753 1.224)"/></g><g transform="translate(506.602 447.044)"><path class="c" d="M4.727,0A1.689,1.689,0,0,1,4.5.356c-.185.258-.42.588-.714,1-.671.909-1.61,2.18-2.8,3.8C-1.456,8.443-5.033,13.174-9.478,19-18.366,30.654-30.8,46.634-44.612,64.219l-35.307,45.091-10.647,13.7c-1.239,1.582-2.213,2.825-2.912,3.714-.318.393-.571.707-.77.955a2.065,2.065,0,0,1-.283.311,1.614,1.614,0,0,1,.223-.356l.714-1c.671-.91,1.61-2.181,2.8-3.8,2.444-3.29,6.019-8.021,10.465-13.847C-71.437,97.342-59,81.361-45.186,63.77l35.3-45.084c4.472-5.757,8.1-10.429,10.648-13.7L3.673,1.266,4.445.311A1.857,1.857,0,0,1,4.727,0" transform="translate(94.531 0)"/></g><g transform="translate(567.903 469.122)"><path class="c" d="M0,0A17.252,17.252,0,0,1,.52,3.667c.21,2.275.395,5.425.521,8.9.091,3.347.174,6.374.242,8.908a22.968,22.968,0,0,1,0,3.7,15.93,15.93,0,0,1-.511-3.669C.583,19.226.437,16.075.313,12.6.2,9.254.093,6.229.006,3.7A20.146,20.146,0,0,1,0,0" transform="translate(0.064 0)"/></g><g transform="translate(570.437 492.312)"><path class="c" d="M0,.118c-.018-.2,6.454-.9,14.454-1.571S28.955-2.5,28.97-2.3s-6.454.906-14.456,1.572S.017.319,0,.118" transform="translate(0 2.353)"/></g><g transform="translate(547.205 521.763)"><path class="c" d="M0,0A21.354,21.354,0,0,1,3.728.6c2.286.431,5.44,1.036,8.94,1.592s6.685.986,8.992,1.284a21.621,21.621,0,0,1,3.728.6,17.519,17.519,0,0,1-3.78-.085c-2.328-.169-5.538-.51-9.055-1.077S5.881,1.663,3.618,1.1A17.782,17.782,0,0,1,0,0" transform="translate(0 0.021)"/></g><g transform="translate(539.85 499.064)"><path class="c" d="M0,0A16.616,16.616,0,0,1,1.357,3.219C2.108,5.236,3.1,8.04,4.146,11.152s1.96,5.942,2.586,8A16.623,16.623,0,0,1,7.6,22.537a16.667,16.667,0,0,1-1.357-3.219C5.493,17.3,4.5,14.5,3.455,11.385s-1.961-5.942-2.586-8A16.669,16.669,0,0,1,0,0" transform="translate(0.015 0.001)"/></g><g transform="translate(516.317 520.298)"><path class="c" d="M0,0A27.019,27.019,0,0,1,1.711,4.131C2.679,6.714,3.97,10.3,5.353,14.273s2.6,7.589,3.44,10.216a27.15,27.15,0,0,1,1.224,4.3,26.96,26.96,0,0,1-1.709-4.13c-.969-2.583-2.26-6.168-3.643-10.144S2.068,6.927,1.224,4.3A27.15,27.15,0,0,1,0,0" transform="translate(0.011 0.001)"/></g><g transform="translate(526.298 548.31)"><path class="c" d="M0,0A34.525,34.525,0,0,1,4.746.628C7.664,1.08,11.691,1.71,16.153,2.3s8.516,1.043,11.452,1.362a34.812,34.812,0,0,1,4.743.631,28.194,28.194,0,0,1-4.788-.119c-2.953-.186-7.025-.556-11.5-1.152s-8.5-1.3-11.4-1.884A28.427,28.427,0,0,1,0,0" transform="translate(0 0.02)"/></g><g transform="translate(552.283 294.855)"><path class="e" d="M3.778,5.286-75.561,2.864l3.314-108.571,79.341,2.422Z" transform="translate(75.561 105.708)"/></g><g transform="translate(537.668 309.278)"><path class="d" d="M3.778,5.286-75.561,2.864l3.314-108.571,79.341,2.422Z" transform="translate(75.561 105.708)"/></g><g transform="translate(537.361 308.903)"><path class="c" d="M3.793,5.3s-.007-.186,0-.533c.007-.368.017-.875.028-1.536C3.85,1.865,3.9-.12,3.959-2.7,4.1-7.89,4.3-15.442,4.552-25,5.1-44.107,5.866-71.206,6.779-103.278l.319.34-79.332-2.388h-.01l.377-.353C-73.13-65.126-74.3-27.58-75.25,2.89l-.288-.305L-17.921,4.5l16.027.566,4.221.161c.958.042,1.466.078,1.466.078s-.466.007-1.4-.011L-1.779,5.2c-3.7-.1-9.085-.234-15.966-.412C-31.61,4.4-51.474,3.849-75.556,3.177l-.3-.007.008-.3C-74.932-27.6-73.811-65.146-72.6-105.7l.01-.364.364.01h.01L7.118-103.6l.33.011-.01.33C6.388-71.1,5.5-43.93,4.878-24.773,4.549-15.251,4.29-7.726,4.112-2.552c-.1,2.547-.169,4.509-.22,5.865-.027.644-.049,1.14-.064,1.5-.017.335-.035.494-.035.494" transform="translate(75.853 106.065)"/></g><g transform="translate(550.781 333.126)"><path class="c" d="M1.836.061c-.006.2-8.642.1-19.288-.224S-36.727-.915-36.72-1.116s8.641-.1,19.289.224S1.843-.141,1.836.061" transform="translate(36.72 1.22)"/></g><g transform="translate(550.491 342.593)"><path class="c" d="M2.829.09c-.007.2-13.313-.042-29.715-.543s-29.7-1.07-29.7-1.271,13.31.042,29.718.543S2.835-.112,2.829.09" transform="translate(56.581 1.795)"/></g><g transform="translate(550.192 352.435)"><path class="c" d="M2.829.09c-.007.2-13.311-.041-29.715-.542s-29.7-1.07-29.694-1.271,13.308.041,29.716.542S2.835-.112,2.829.09" transform="translate(56.58 1.794)"/></g><g transform="translate(549.891 362.277)"><path class="c" d="M2.829.09c-.006.2-13.311-.041-29.715-.543s-29.7-1.068-29.694-1.271,13.308.042,29.718.543S2.836-.112,2.829.09" transform="translate(56.58 1.795)"/></g><g transform="translate(549.59 372.12)"><path class="c" d="M2.829.09c-.006.2-13.311-.042-29.714-.543s-29.7-1.07-29.7-1.271,13.308.042,29.718.543S2.836-.112,2.829.09" transform="translate(56.58 1.795)"/></g><g transform="translate(549.29 381.962)"><path class="c" d="M2.829.09c-.007.2-13.313-.042-29.715-.543s-29.7-1.07-29.7-1.271,13.308.042,29.718.543S2.835-.112,2.829.09" transform="translate(56.581 1.795)"/></g><g transform="translate(548.989 391.804)"><path class="c" d="M2.829.09c-.007.2-13.313-.042-29.715-.543s-29.7-1.07-29.7-1.271,13.31.041,29.718.543S2.835-.112,2.829.09" transform="translate(56.581 1.795)"/></g><g transform="translate(548.69 401.596)"><path class="c" d="M1.521.052c-.006.2-7.16.146-15.977-.123S-30.418-.722-30.412-.922s7.158-.147,15.978.123S1.528-.149,1.521.052" transform="translate(30.412 1.044)"/></g><g transform="translate(359.789 237.115)"><path class="d" d="M4.9,1.479l-24.825,62.35-77.99-31.052,24.825-62.35Z" transform="translate(97.918 29.573)"/></g><g transform="translate(359.606 236.95)"><path class="c" d="M4.9,1.487s-.13-.046-.377-.143L3.436.918-.8-.752l-15.97-6.322L-73.131-29.448l.164-.07L-97.775,32.831l0,.007-.078-.185,77.98,31.074-.154.066L-1.958,18.571C.222,13.129,1.931,8.863,3.1,5.951,3.683,4.5,4.131,3.385,4.436,2.629S4.9,1.487,4.9,1.487s-.143.381-.437,1.13-.732,1.862-1.3,3.311C2.014,8.838.326,13.1-1.826,18.544c-4.325,10.9-10.515,26.509-17.984,45.336l-.043.111-.111-.045-78-31.03-.13-.052.052-.132,0-.007C-89.072,10.216-80.594-11.057-73.2-29.612l.046-.119.118.048L-16.645-7.161-.726-.788,3.474.9l1.074.435c.239.1.357.15.357.15" transform="translate(98.093 29.731)"/></g><g transform="translate(363.991 242.163)"><path class="b" d="M0,2.6,72.512,31.466l21.7-54.5L21.7-51.905Z" transform="translate(0 51.905)"/></g><g transform="translate(364.283 273.039)"><path class="c" d="M0,1.133,38.814-22.661,46.063,4.78,61.215-2.314,72.51,30Z" transform="translate(0 22.661)"/></g><g transform="translate(415.24 269.367)"><path class="c" d="M.565.4A6.145,6.145,0,0,1-7.418,3.837a6.145,6.145,0,0,1-3.436-7.983A6.145,6.145,0,0,1-2.871-7.582,6.147,6.147,0,0,1,.565.4" transform="translate(11.292 8.02)"/></g><g transform="translate(139.907 282.608)"><path class="c" d="M1.968,2.6a3.421,3.421,0,0,0,1.662.274,2.994,2.994,0,0,0,1.786-.89A17.24,17.24,0,0,0,6.895-.43l9.079-15.847,3.021-5.243,1.61-2.789a9.22,9.22,0,0,0,.738-1.407,2.678,2.678,0,0,0,.043-1.492,2.515,2.515,0,0,0-.806-1.27,13.4,13.4,0,0,0-1.445-.861L16.02-31.08l-6.5-3.637L-19.4-50.95a2.622,2.622,0,0,0-3.4.85q-1.092,1.869-2.171,3.711-2.161,3.715-4.259,7.314c-2.793,4.792-5.489,9.415-8.058,13.819q-.481.825-.958,1.641a2.761,2.761,0,0,0-.451,1.6,2.512,2.512,0,0,0,.57,1.5,4.451,4.451,0,0,0,1.386.974l6.115,3.459,10.97,6.22L-3.8-.806.5,1.687,1.6,2.352a1.964,1.964,0,0,1,.365.248,2,2,0,0,1-.4-.183l-1.144-.6L-3.938-.559-19.911-9.409c-3.371-1.879-7.059-3.937-11.015-6.143l-6.133-3.429A4.978,4.978,0,0,1-38.63-20.1a3.165,3.165,0,0,1-.727-1.89,3.443,3.443,0,0,1,.532-1.961l.952-1.644c2.558-4.413,5.242-9.041,8.022-13.84q2.092-3.6,4.249-7.319,1.092-1.867,2.2-3.76a3.351,3.351,0,0,1,4.358-1.072L9.85-35.3q3.326,1.882,6.485,3.665l3.105,1.757a13.12,13.12,0,0,1,1.537.934,3.134,3.134,0,0,1,.993,1.586,3.264,3.264,0,0,1-.062,1.83,9.393,9.393,0,0,1-.8,1.518l-1.627,2.778L16.42-16.017C12.521-9.408,9.357-4.045,7.14-.288A16.3,16.3,0,0,1,5.57,2.135a3.116,3.116,0,0,1-1.926.886,2.848,2.848,0,0,1-1.289-.2A1.547,1.547,0,0,1,1.968,2.6" transform="translate(39.361 51.993)"/></g><g transform="translate(162.805 302.233)"><path class="c" d="M.525.3,4.055,6.565l-7.28.133-7.28.133,3.751-6.4L-3-5.968Z" transform="translate(10.505 5.968)"/></g></g></g><g transform="translate(0 -666.665)"><g class="a"><g transform="translate(122.971 158.992)"><path class="b" d="M2.651,13.59C-24.061,7.025-45.272-16.433-51.183-43.3S-48.4-99.329-30.34-120.077s44.73-33.2,72.093-36.007c35.269-3.618,73.447,7.4,104.912-8.935,22.753-11.813,36.453-35.316,53.4-54.552,22.873-25.967,53.97-45.438,88.158-50.791s71.254,4.518,95.743,28.969c21.126,21.094,32.514,50.718,35.862,80.382C432.706-46.923,350.351,37.171,305.5,62.193c-33.03,18.425-82.848,17.875-120.641,16.432-42.822-1.637-85.982-6.474-126.343-20.873S-19.5,18.715-43.82-16.568" transform="translate(53.023 271.777)"/></g></g></g><g transform="translate(0 -666.665)"><g class="a"><g transform="translate(50.497 575.04)"><path class="f" d="M28.484.018c0,.213-133.9.386-299.048.386C-435.765.4-569.641.231-569.641.018s133.876-.386,299.076-.386c165.144,0,299.048.172,299.048.386" transform="translate(569.641 0.368)"/></g></g></g><g transform="translate(0 -666.665)"><g class="a"><g transform="translate(156.265 378.912)"><path class="g" d="M2.013,5.123-40.261-37.332l21.255-39.039c21.253-27.206,66.242-25.453,66.242-25.453a257.882,257.882,0,0,1,66.353,4.005c35.735,6.954,32.858,30.6,32.858,30.6l4.787,87.6,5.131,71.33L24.559,94.373,2.013,5.123" transform="translate(40.261 102.446)"/></g><g transform="translate(112.591 424.664)"><path class="g" d="M7.474,7-110.582,8.445a38.377,38.377,0,0,1-35.157-54.792l50.477-93.614,45.979,31.083L-80.646-43.785l95.571,1.7Z" transform="translate(149.476 139.961)"/></g><g transform="translate(338.752 399.922)"><path class="g" d="M0,0,94.739,146.271l-55.272,3.615S6.461,97.87,7.207,98.946C8.557,100.892,0,0,0,0"/></g><g transform="translate(194.821 396.927)"><path class="f" d="M.743,3.2a3.086,3.086,0,0,1,.132-.752c.134-.563.3-1.264.5-2.12.438-1.838,1.074-4.5,1.742-7.809s1.371-7.272,1.854-11.7a61.8,61.8,0,0,0,.052-14.426A38.008,38.008,0,0,0,.132-47.073,54.327,54.327,0,0,0-6.9-56.54a66.84,66.84,0,0,0-5.736-5.548,28.179,28.179,0,0,1-2.213-1.932,3.172,3.172,0,0,1,.644.409c.4.3,1.018.7,1.75,1.3a55.776,55.776,0,0,1,5.932,5.415A52.228,52.228,0,0,1,.712-47.412a37.853,37.853,0,0,1,5.033,13.7,60.378,60.378,0,0,1-.1,14.6A118.3,118.3,0,0,1,3.622-7.373C2.887-4.065,2.173-1.417,1.651.4c-.262.91-.477,1.613-.636,2.086A2.932,2.932,0,0,1,.743,3.2" transform="translate(14.85 64.021)"/></g><g transform="translate(181.258 469.194)"><path class="f" d="M1.208,0A13.369,13.369,0,0,1,.394,2.117C-.17,3.459-1.018,5.39-2.088,7.764c-2.139,4.75-5.184,11.274-8.686,18.41s-6.8,13.539-9.25,18.137c-1.224,2.3-2.232,4.151-2.948,5.419a13.365,13.365,0,0,1-1.176,1.938,13.439,13.439,0,0,1,.925-2.068l2.741-5.526,9.054-18.221C-7.99,18.76-4.88,12.342-2.556,7.547-1.461,5.292-.555,3.423.137,2A13.5,13.5,0,0,1,1.208,0" transform="translate(24.152 0)"/></g><g transform="translate(154.468 520.219)"><path class="f" d="M5.48,2.448a.833.833,0,0,1,0-.246c.015-.195.035-.428.057-.718C5.607.8,5.7-.125,5.82-1.308c.273-2.486.664-6.037,1.155-10.5,1.044-9.048,2.519-21.8,4.252-36.819l.332.372-34.873.032c-23.808-.043-45.357-.08-61.012-.106-7.77-.05-14.073-.09-18.488-.116-2.145-.031-3.829-.053-5.027-.069l-1.306-.038a1.982,1.982,0,0,1-.445-.036,1.982,1.982,0,0,1,.445-.036l1.306-.038,5.027-.069c4.416-.027,10.718-.066,18.488-.116l61.012-.106,34.873.032h.377l-.045.372C10.048-33.543,8.484-20.8,7.376-11.763c-.571,4.456-1.026,8-1.344,10.48C5.869-.1,5.742.82,5.648,1.495c-.045.288-.081.521-.112.714a.916.916,0,0,1-.056.239" transform="translate(109.593 48.956)"/></g><g transform="translate(162.849 505.442)"><path class="f" d="M.924.781a33.153,33.153,0,0,1-2.356-2.95,47.661,47.661,0,0,0-6.3-6.481,47.511,47.511,0,0,0-7.445-5.125,33.151,33.151,0,0,1-3.3-1.83,13.854,13.854,0,0,1,3.542,1.371A37.906,37.906,0,0,1-7.26-9.207,37.8,37.8,0,0,1-1.022-2.481,13.875,13.875,0,0,1,.924.781" transform="translate(18.48 15.614)"/></g><g transform="translate(342.346 411.034)"><path class="f" d="M.351,5.718a7.685,7.685,0,0,1-.186-1.21q-.147-1.291-.4-3.485C-.553-2-.987-6.387-1.456-11.812-2.413-22.658-3.517-37.657-4.5-54.239S-6.169-85.852-6.562-96.733c-.2-5.439-.33-9.842-.4-12.886q-.036-2.207-.057-3.506a7.612,7.612,0,0,1,.029-1.224,7.963,7.963,0,0,1,.118,1.218q.071,1.3.195,3.5c.153,3.109.367,7.491.63,12.876.526,10.871,1.292,25.889,2.274,42.472S-1.767-22.707-.941-11.854C-.525-6.479-.188-2.106.053,1q.162,2.2.258,3.5A7.534,7.534,0,0,1,.351,5.718" transform="translate(7.02 114.348)"/></g><g transform="translate(229.161 413.56)"><path class="c" d="M.723,1.807A11.768,11.768,0,0,1,.872-.105c.162-1.336.377-3.112.641-5.3.615-4.621,1.456-10.954,2.43-18.283l.542.333c-2.821,1.974-5.88,4.119-9.057,6.342-3.234,2.25-6.348,4.416-9.216,6.409l-.664.462.122-.8c1.112-7.267,2.072-13.539,2.772-18.12.356-2.155.645-3.907.864-5.225a11.622,11.622,0,0,1,.389-1.865,11.913,11.913,0,0,1-.16,1.9c-.168,1.326-.391,3.088-.664,5.256-.636,4.588-1.506,10.875-2.514,18.158l-.542-.336,9.194-6.437c3.184-2.215,6.251-4.348,9.079-6.314l.659-.459-.118.792C3.553-16.272,2.622-9.954,1.943-5.341,1.6-3.17,1.315-1.4,1.1-.074A11.862,11.862,0,0,1,.723,1.807" transform="translate(14.451 36.144)"/></g><g transform="translate(260.785 437.356)"><path class="c" d="M1.726.945A11.9,11.9,0,0,1,.351-.394C-.573-1.371-1.8-2.673-3.312-4.272L-15.819-17.827l.6-.206c-.284,3.433-.592,7.157-.911,11.021-.339,3.926-.664,7.7-.962,11.185l-.07.8-.535-.6c-4.878-5.5-9.089-10.248-12.162-13.714-1.431-1.651-2.593-2.993-3.468-4a11.575,11.575,0,0,1-1.184-1.491A11.846,11.846,0,0,1-33.151-13.5c.913.976,2.125,2.274,3.618,3.868,3.122,3.423,7.4,8.109,12.356,13.541l-.6.2c.288-3.482.6-7.262.927-11.187.332-3.863.651-7.587.946-11.017l.069-.8.533.6c4.938,5.5,9.2,10.259,12.314,13.73,1.45,1.655,2.628,3,3.514,4.014a11.7,11.7,0,0,1,1.2,1.5" transform="translate(34.509 18.891)"/></g><g transform="translate(308.746 455.314)"><path class="c" d="M.7,0A11.86,11.86,0,0,1-.246,1.666L-3.081,6.184c-2.524,3.921-5.984,9.29-9.986,15.506l-.349-.533,10.9-1.879L8.547,17.4l.8-.136-.449.669L-1.331,33.151c-1.239,1.8-2.248,3.261-3.007,4.361a11.831,11.831,0,0,1-1.145,1.522,11.639,11.639,0,0,1,.952-1.651l2.841-4.472L8.316,17.555l.349.533L-2.4,20l-10.9,1.847-.792.134.444-.666c4.089-6.16,7.623-11.481,10.2-15.365l3-4.407A11.7,11.7,0,0,1,.7,0" transform="translate(14.092 0.001)"/></g><g transform="translate(273.483 482.442)"><path class="c" d="M.7,0A11.86,11.86,0,0,1-.246,1.666L-3.081,6.184c-2.524,3.921-5.984,9.29-9.986,15.506l-.349-.533,10.9-1.879L8.547,17.4l.8-.136-.448.669L-1.331,33.151c-1.239,1.8-2.248,3.261-3.007,4.361a11.6,11.6,0,0,1-1.145,1.52,11.6,11.6,0,0,1,.952-1.649c.715-1.128,1.669-2.628,2.839-4.472L8.316,17.555l.349.533L-2.4,20l-10.9,1.847-.792.134.444-.666c4.089-6.16,7.623-11.481,10.2-15.365l3-4.407A11.574,11.574,0,0,1,.7,0" transform="translate(14.092 0.001)"/></g><g transform="translate(349.673 454.93)"><path class="c" d="M.7,0A11.764,11.764,0,0,1-.246,1.666L-3.08,6.185c-2.526,3.92-5.984,9.289-9.986,15.5l-.35-.532c3.394-.587,7.076-1.221,10.9-1.879L8.549,17.4l.8-.136-.448.669c-4.1,6.1-7.643,11.369-10.227,15.214l-3.007,4.36a11.608,11.608,0,0,1-1.147,1.522,11.764,11.764,0,0,1,.953-1.651c.715-1.127,1.667-2.626,2.839-4.47L8.316,17.555l.35.533C5.224,18.683,1.486,19.327-2.4,20c-3.823.648-7.507,1.271-10.9,1.848l-.792.133.442-.666c4.091-6.16,7.624-11.48,10.2-15.364,1.239-1.819,2.247-3.3,3-4.407A11.96,11.96,0,0,1,.7,0" transform="translate(14.091 0.001)"/></g><g transform="translate(171.244 432.52)"><path class="c" d="M.7,0A11.86,11.86,0,0,1-.246,1.666C-.96,2.806-1.912,4.322-3.081,6.184c-2.524,3.921-5.982,9.29-9.986,15.506l-.349-.533,10.9-1.879L8.549,17.4l.8-.136-.449.669c-4.1,6.1-7.641,11.368-10.227,15.212-1.239,1.8-2.248,3.261-3.006,4.361a11.67,11.67,0,0,1-1.147,1.52,11.724,11.724,0,0,1,.953-1.649c.715-1.128,1.667-2.628,2.839-4.472L8.316,17.555l.349.533L-2.4,20l-10.9,1.847-.794.134.444-.666c4.091-6.16,7.624-11.481,10.2-15.365l3-4.407A11.574,11.574,0,0,1,.7,0" transform="translate(14.092 0.001)"/></g><g transform="translate(130.691 534.356)"><path class="c" d="M0,.136A11.585,11.585,0,0,1,1.288,1.558C2.15,2.591,3.3,3.965,4.7,5.654c2.941,3.619,6.971,8.574,11.635,14.311l-.615.167c.5-3.406,1.039-7.1,1.6-10.941.582-3.9,1.142-7.647,1.658-11.1l.12-.8.5.636L30.878,12.372l3.21,4.213a11.753,11.753,0,0,1,1.089,1.562,11.852,11.852,0,0,1-1.271-1.417c-.85-1.033-1.98-2.4-3.368-4.089L19.051-1.644l.616-.167L18.043,9.3,16.411,20.233l-.119.8-.5-.629C11.213,14.6,7.253,9.587,4.364,5.927L1.107,1.7A11.772,11.772,0,0,1,0,.136" transform="translate(0.002 2.711)"/></g><g transform="translate(222.221 469.396)"><path class="c" d="M1.661,0a11.893,11.893,0,0,1-1.9.245L-5.556.705-23.948,2.076l.214-.6,8.065,7.564c2.864,2.7,5.622,5.307,8.163,7.7l.588.554-.805.045c-7.342.4-13.678.75-18.3,1-2.181.1-3.956.171-5.292.228a11.868,11.868,0,0,1-1.9,0,11.331,11.331,0,0,1,1.89-.234c1.331-.109,3.1-.252,5.279-.428C-21.43,17.6-15.1,17.16-7.765,16.654l-.216.6-8.187-7.679-8.042-7.589-.585-.552.8-.049C-16.614.938-10.239.554-5.585.271L-.258.014A11.966,11.966,0,0,1,1.661,0" transform="translate(33.221 0.025)"/></g><g transform="translate(226.079 536.766)"><path class="c" d="M0,.153a11.7,11.7,0,0,1,1.316,1.4C2.2,2.566,3.37,3.917,4.81,5.58L16.723,19.66l-.612.179c.431-3.417.9-7.123,1.386-10.97.5-3.907.991-7.669,1.439-11.134l.1-.8.508.624c4.638,5.706,8.641,10.629,11.564,14.224l3.291,4.15a11.824,11.824,0,0,1,1.121,1.54,11.38,11.38,0,0,1-1.3-1.393l-3.447-4.021C27.8,8.506,23.733,3.638,19.013-2l.612-.176c-.437,3.465-.913,7.227-1.406,11.136-.5,3.846-.977,7.552-1.42,10.966l-.1.8L16.19,20.1C11.494,14.393,7.437,9.459,4.476,5.858,3.1,4.143,1.98,2.748,1.137,1.7A11.941,11.941,0,0,1,0,.153" transform="translate(0.002 3.067)"/></g><g transform="translate(135.755 488.209)"><path class="c" d="M1.661,0a11.763,11.763,0,0,1-1.9.246L-5.556.707-23.948,2.077l.214-.6,8.065,7.564c2.864,2.7,5.624,5.307,8.163,7.7l.588.554-.805.046-18.3,1-5.292.228a11.764,11.764,0,0,1-1.905,0,11.6,11.6,0,0,1,1.891-.234c1.331-.109,3.1-.252,5.279-.428l18.287-1.263-.217.6c-2.548-2.388-5.314-4.983-8.187-7.678-2.821-2.661-5.537-5.228-8.042-7.591l-.584-.552.8-.048L-5.585.273-.257.015A12.09,12.09,0,0,1,1.661,0" transform="translate(33.221 0.025)"/></g><g transform="translate(183.388 538.37)"><path class="c" d="M1.661,0a11.893,11.893,0,0,1-1.9.245L-5.556.705-23.948,2.076l.214-.6c2.512,2.355,5.237,4.91,8.065,7.564,2.864,2.7,5.624,5.307,8.163,7.7l.588.554-.805.045c-7.342.4-13.678.75-18.3,1-2.183.1-3.958.171-5.292.228a11.891,11.891,0,0,1-1.905,0,11.4,11.4,0,0,1,1.891-.234c1.33-.109,3.1-.252,5.279-.428,4.62-.321,10.951-.757,18.287-1.263l-.217.6-8.187-7.679-8.042-7.589-.585-.553.8-.048C-16.614.938-10.239.554-5.585.271L-.258.014A11.966,11.966,0,0,1,1.661,0" transform="translate(33.221 0.025)"/></g><g transform="translate(290.923 410.749)"><path class="c" d="M1.661,0a11.893,11.893,0,0,1-1.9.245L-5.556.705-23.948,2.076l.214-.6,8.065,7.564c2.864,2.7,5.622,5.307,8.163,7.7l.588.554-.805.045c-7.342.4-13.678.75-18.3,1-2.183.1-3.959.171-5.293.228a12.084,12.084,0,0,1-1.9,0,11.331,11.331,0,0,1,1.89-.234c1.331-.109,3.1-.252,5.279-.428C-21.43,17.6-15.1,17.16-7.765,16.654l-.216.6-8.187-7.679-8.042-7.589-.585-.553.8-.048C-16.614.938-10.239.554-5.585.271L-.258.014A11.966,11.966,0,0,1,1.661,0" transform="translate(33.221 0.025)"/></g><g transform="translate(270.319 529.562)"><path class="h" d="M.151.421S23.708-6.365,31.5-8.353c3.037-.774,16.048,6.089,25.035,11.8,0,0,12.376,7.337,11.374,9.6-1.1,2.488-5.666,1.978-12.942-1.445,0,0,2.538,7.375-2.446,7.216,0,0,2.472,7.969-2.2,8.793s-5.769-9.344-9.892-9.892-12.639-1.1-12.639-1.1S20.7,28.36,15.2,29.185s-18.231-.661-18.231-.661Z" transform="translate(3.028 8.413)"/></g><g transform="translate(313.699 540.008)"><path class="i" d="M0,0C.108-.169,3.054,1.5,6.579,3.719s6.3,4.165,6.191,4.336S9.718,6.561,6.19,4.336-.108.171,0,0" transform="translate(0.003 0.011)"/></g><g transform="translate(312.307 544.535)"><path class="i" d="M0,0C.084-.183,3.581,1.252,7.811,3.2S15.4,6.886,15.316,7.069,11.735,5.818,7.5,3.866-.085.183,0,0" transform="translate(0.002 0.015)"/></g><g transform="translate(314.83 555.448)"><path class="i" d="M0,0C.028-.2,2.408-.034,5.317.365s5.244.883,5.216,1.082-2.407.039-5.316-.361S-.028.2,0,0" transform="translate(0 0.082)"/></g><g transform="translate(223.446 227.472)"><path class="f" d="M.924,3.236A4.96,4.96,0,0,1-.595,8.35a4.961,4.961,0,0,1-5.3.61C-9.087,7.343-9.49,2.939-8.863-.585s1.826-7.283.347-10.542C-9.646-13.62-12.094-15.2-14-17.162a15.444,15.444,0,0,1-4.29-13.1A12.987,12.987,0,0,1-9.366-40.475c4.69-1.31,10.468.13,13.959-3.265,2.53-2.46,2.685-6.49,4.642-9.428,3.039-4.558,9.465-5.282,14.893-4.54S35.084-55.224,40.4-56.547c4.441-1.1,8.085-4.207,12.246-6.11a24.634,24.634,0,0,1,27.376,5.306,24.636,24.636,0,0,1,3.851,27.618,15.331,15.331,0,0,1-7.441,7.361" transform="translate(18.488 64.714)"/></g><g transform="translate(241.247 255.762)"><path class="h" d="M1.363,7.4h0A26.989,26.989,0,0,0,28.322-19.966l-.356-25.739S49.588-47.871,51.02-69.291s.4-70.846.4-70.846a74.614,74.614,0,0,0-75.37,5.331l-3.31,2.274L-25.651-19.21A26.988,26.988,0,0,0,1.363,7.4" transform="translate(27.263 147.903)"/></g><g transform="translate(311.407 295.931)"><path class="f" d="M.135.3A3.207,3.207,0,0,1,.172-6.071a1.447,1.447,0,0,1,.521,0A3.207,3.207,0,0,1,.657.307,1.455,1.455,0,0,1,.135.3" transform="translate(2.704 6.093)"/></g><g transform="translate(307.611 292.135)"><path class="f" d="M.516.16C.161.513-1.857-1.222-4.807-1.4c-2.95-.218-5.177,1.233-5.484.837-.151-.178.22-.829,1.194-1.49A7.194,7.194,0,0,1-4.689-3.178a7.172,7.172,0,0,1,4.218,1.7C.407-.69.688,0,.516.16" transform="translate(10.323 3.194)"/></g><g transform="translate(279.403 295.655)"><path class="f" d="M.233.026A3.116,3.116,0,0,1,1.02,4.364a3.117,3.117,0,0,1-4.337.788A3.119,3.119,0,0,1-4.106.813,3.117,3.117,0,0,1,.233.026" transform="translate(4.66 0.529)"/></g><g transform="translate(275.402 292.989)"><path class="f" d="M.516.16C.161.513-1.857-1.222-4.807-1.4c-2.95-.218-5.177,1.233-5.484.836-.151-.176.22-.827,1.194-1.488A7.2,7.2,0,0,1-4.688-3.178a7.172,7.172,0,0,1,4.217,1.7C.407-.69.688,0,.516.16" transform="translate(10.323 3.194)"/></g><g transform="translate(296.354 295.581)"><path class="f" d="M.019,1.227C.012.994,1.857.724,4.848.475,5.626.433,6.241.292,6.319-.12a4.189,4.189,0,0,0-.433-2.241C5.234-4.356,4.572-6.374,3.879-8.488,1.119-17.211-.758-24.393-.316-24.533S2.722-17.718,5.483-9c.648,2.128,1.268,4.159,1.882,6.167A4.934,4.934,0,0,1,7.611.4a2.027,2.027,0,0,1-1.4,1.161,5.014,5.014,0,0,1-1.327.1c-3-.055-4.861-.2-4.868-.437" transform="translate(0.38 24.535)"/></g><g transform="translate(286.732 324.082)"><path class="d" d="M.012,0A55.4,55.4,0,0,0,14.261,5s-3.748,5.323-9.8,2.723C-1.83,5.02.012,0,.012,0" transform="translate(0.24)"/></g><g transform="translate(269.015 348.189)"><path class="i" d="M1.31.451S-12.3.816-26.2-9.013c0,0,5.765,15.788,27.259,15.022Z" transform="translate(26.203 9.013)"/></g><g transform="translate(235.811 250.12)"><path class="f" d="M4.013.9S-8.925,7.472-26.086-.68C-37.346-6.031-50.4-8.5-53.222-6.2s-3.2,13.8-14.189,17.371c0,0,1.186,21.913-7.571,21.3S-78.937-2.206-78.937-2.206l21.185-10.86L-34.5-17.929l22.051,2.673L4.657-10.928Z" transform="translate(80.252 17.929)"/></g><g transform="translate(227.852 292.525)"><path class="h" d="M.706.045C.349-.132-13.785-5.114-14.116,9.567S.36,21.551.4,21.131.706.045.706.045" transform="translate(14.121 0.909)"/></g><g transform="translate(231.577 297.225)"><path class="i" d="M.306.556C.243.507.046.73-.391.919A2.56,2.56,0,0,1-2.3.914c-1.539-.6-2.789-3.1-2.8-5.743a8.43,8.43,0,0,1,.8-3.646,2.956,2.956,0,0,1,1.967-1.921,1.3,1.3,0,0,1,1.494.736c.188.414.088.706.164.732.041.038.321-.238.217-.848a1.634,1.634,0,0,0-.557-.932,1.928,1.928,0,0,0-1.406-.4A3.594,3.594,0,0,0-5.148-8.9a8.679,8.679,0,0,0-.979,4.073C-6.1-1.865-4.647.937-2.538,1.6A2.737,2.737,0,0,0-.191,1.263C.273.91.357.584.306.556" transform="translate(6.127 11.12)"/></g><g transform="translate(235.203 247.14)"><path class="f" d="M0,.018c-.081-.171,2.33-.86,5.092.189C7.868,1.223,9.239,3.323,9.065,3.4,8.9,3.55,7.4,1.817,4.838.89,2.3-.086.022.238,0,.018" transform="translate(0.002 0.362)"/></g><g transform="translate(243.494 238.728)"><path class="f" d="M.026,0C.283.017-.12,3.1.393,6.768c.5,3.7,2.246,6.282,2.05,6.4-.07.049-.606-.522-1.231-1.621A13.808,13.808,0,0,1-.328,6.877,15.264,15.264,0,0,1,.026,0" transform="translate(0.516 0)"/></g><g transform="translate(304.351 286.391)"><path class="f" d="M0,.1C-.078-.075.552-.58,1.742-1.067a13.069,13.069,0,0,1,4.921-.883,13.066,13.066,0,0,1,4.9.981c1.18.51,1.8,1.028,1.718,1.2-.179.389-3.007-.715-6.636-.722C3.022-.558.173.49,0,.1" transform="translate(0.006 1.951)"/></g><g transform="translate(271.616 283.302)"><path class="f" d="M0,.1C-.078-.075.552-.58,1.742-1.067a13.1,13.1,0,0,1,4.921-.883,13.093,13.093,0,0,1,4.9.981c1.18.51,1.8,1.028,1.718,1.2-.179.389-3.007-.715-6.636-.722C3.022-.558.173.49,0,.1" transform="translate(0.006 1.951)"/></g><g transform="translate(301.617 290.405)"><path class="f" d="M.01.016A6.355,6.355,0,0,1,.066.886c.018.62.042,1.406.07,2.369.022,1.04.048,2.268.077,3.674a13.912,13.912,0,0,0,.7,4.761,12.756,12.756,0,0,0,3.094,4.893A12.47,12.47,0,0,0,9.793,19.76a11.828,11.828,0,0,0,3.58.314,11.536,11.536,0,0,0,3.664-.773,12.348,12.348,0,0,0,6.037-4.885A12.571,12.571,0,0,0,25.042,7.25c.007-2.5.013-4.924.02-7.234L25.4.355C18.065.288,11.787.232,7.231.191L1.956.1.53.057A2.765,2.765,0,0,1,.01.016a14.88,14.88,0,0,1,1.8-.081l5.2-.092L25.4-.323l.337,0V.016c.007,2.31.013,4.729.02,7.234a13.23,13.23,0,0,1-2.071,7.561,13.005,13.005,0,0,1-6.4,5.159,12.165,12.165,0,0,1-3.877.8,12.426,12.426,0,0,1-3.776-.357,13.008,13.008,0,0,1-6.054-3.4,13.169,13.169,0,0,1-3.16-5.16A14.087,14.087,0,0,1-.194,6.9c.029-1.443.056-2.7.077-3.77C-.088,2.175-.064,1.4-.046.789A3.989,3.989,0,0,1,.01.016" transform="translate(0.203 0.325)"/></g><g transform="translate(267.294 289.681)"><path class="f" d="M.01.016A6.345,6.345,0,0,1,.066.884c.018.622.042,1.407.07,2.369Q.17,4.815.213,6.928a13.917,13.917,0,0,0,.7,4.761,12.773,12.773,0,0,0,3.094,4.893A12.47,12.47,0,0,0,9.793,19.76a11.873,11.873,0,0,0,3.58.314,11.528,11.528,0,0,0,3.664-.773,12.342,12.342,0,0,0,6.037-4.885A12.56,12.56,0,0,0,25.042,7.25c.007-2.5.014-4.925.02-7.234L25.4.355,7.231.19,1.956.1.53.057A2.782,2.782,0,0,1,.01.016a14.653,14.653,0,0,1,1.8-.083l5.2-.091L25.4-.323l.337,0V.016c.007,2.309.014,4.729.02,7.234a13.233,13.233,0,0,1-2.071,7.561,13.005,13.005,0,0,1-6.4,5.159,12.117,12.117,0,0,1-3.877.8,12.426,12.426,0,0,1-3.776-.356,13,13,0,0,1-6.054-3.4,13.181,13.181,0,0,1-3.16-5.159A14.051,14.051,0,0,1-.193,6.9c.029-1.443.055-2.7.077-3.77.028-.951.052-1.723.07-2.337A3.989,3.989,0,0,1,.01.016" transform="translate(0.202 0.325)"/></g><g transform="translate(292.472 291.403)"><path class="f" d="M.46.017c0,.2-2.164.364-4.834.364S-9.207.219-9.207.017s2.164-.364,4.833-.364S.46-.184.46.017" transform="translate(9.207 0.347)"/></g><g transform="translate(240.737 291.551)"><path class="f" d="M0,.019c0-.2,5.992-.382,13.384-.406s13.387.123,13.387.325S20.78.32,13.385.343,0,.221,0,.019" transform="translate(0 0.389)"/></g></g></g><g transform="translate(0 -666.665)"><g class="a"><g transform="translate(416.89 294.385)"><path class="g" d="M4.421.713-37.256-14.253-78.528.511C-83.8,3-88.417,4.49-88.417,9.4V33.835a92.353,92.353,0,0,0,13.6,48.636A84.616,84.616,0,0,0-36.85,116.008C-19.981,110.527-7.388,95.92.311,83.426a92.357,92.357,0,0,0,13.6-48.637V12.813c0-7-3.709-10.417-9.485-12.1" transform="translate(88.417 14.253)"/></g><g transform="translate(416.891 294.385)"><g class="j"><g transform="translate(0 0)"><path d="M2.456,5.528A67.309,67.309,0,0,1-27.586-21.221,73.07,73.07,0,0,1-38.343-59.7V-76.844c0-3.884,2.342-7.521,6.994-9.692L2.058-99.027l-.007-11.525L-39.222-95.787c-4.33,1.893-9.888,3.979-9.888,8.887v24.438a92.356,92.356,0,0,0,13.6,48.636A84.617,84.617,0,0,0,2.456,19.71Z" transform="translate(49.111 110.552)"/></g></g></g><g transform="translate(468.052 294.385)"><g class="k"><g transform="translate(0 0)"><path d="M.019,6.2A50.19,50.19,0,0,0,8.208,2.692,73.5,73.5,0,0,0,25.534-10.937,93.4,93.4,0,0,0,37.585-27.131a88.909,88.909,0,0,0,13.191-49.1L50.8-96.411c-.024-10.048-5.177-10.788-9.51-12.681L-.385-124.058l.007,11.525,33.8,12.692c4.654,2.171,7,5.809,7,9.692v17.143A73.07,73.07,0,0,1,29.656-34.527C23.564-24.642,14.539-14.448.019-7.979Z" transform="translate(0.385 124.058)"/></g></g></g><g transform="translate(452.304 330.016)"><g class="l"><g transform="translate(0 0)"><path class="d" d="M1.165.671H-15.814l.046-3.27a8.5,8.5,0,0,1,8.49-8.488A8.495,8.495,0,0,1,1.21-2.616ZM-4.393,21.338H-9.675l.825-3.814a3.216,3.216,0,0,1-1.526-2.736,3.221,3.221,0,0,1,3.221-3.22,3.22,3.22,0,0,1,3.22,3.22A3.217,3.217,0,0,1-5.36,17.463c.372,1.478.967,3.875.967,3.875M3.5.7l.045-3.3A10.832,10.832,0,0,0-7.278-13.42,10.829,10.829,0,0,0-18.1-2.616l-.048,3.36a6.049,6.049,0,0,0-5.162,5.982V26.18a6.054,6.054,0,0,0,6.055,6.054h20.2A6.055,6.055,0,0,0,9,26.18V6.726A6.054,6.054,0,0,0,3.5.7" transform="translate(23.308 13.42)"/></g></g></g><g transform="translate(433.423 321.895)"><path class="d" d="M.047,1.048A13.23,13.23,0,0,1-.579-2.337a57.936,57.936,0,0,1-.337-8.3c.045-1.623.153-3.167.3-4.567a9.784,9.784,0,0,1,.931-3.688A4.232,4.232,0,0,1,2.14-20.722c.564-.263.917-.251.923-.211A4.725,4.725,0,0,0,.777-18.657a10.139,10.139,0,0,0-.724,3.518c-.109,1.389-.2,2.919-.241,4.526-.1,3.213.006,6.125.123,8.232A20.887,20.887,0,0,1,.047,1.048" transform="translate(0.943 20.955)"/></g><g transform="translate(434.613 350.036)"><path class="d" d="M.02.214c-.2,0-.385-1-.409-2.243s.119-2.253.321-2.257.384,1,.409,2.244S.221.21.02.214" transform="translate(0.392 4.285)"/></g></g></g><g transform="translate(298.754 -193.111)"><path class="f" d="M-18.991,0-56.476,92.7h-67.589v4.185H77.25L118.427,0Z" transform="translate(124.065)"/></g><g transform="translate(0 -666.665)"><g class="a"><g transform="translate(445.713 510.139)"><path class="m" d="M.78.62C-.9,6.4-5.807,10.062-10.171,8.792S-16.709,1.8-15.026-3.982s6.587-9.442,10.952-8.172S2.464-5.165.78.62" transform="translate(15.596 12.405)"/></g></g></g></g></svg>