<svg xmlns="http://www.w3.org/2000/svg" width="270.293" height="57" viewBox="0 0 270.293 57"><g transform="translate(-232.707 -17)"><path d="M398.612-324.793l2.577-6.62-2.561-2.412-5.751.049-4.081-3.713h-6.3l3.486-4.329-7.126,1.737-2.058,7.892h0a52.867,52.867,0,0,1-5.392,12.031c-5.527,8.642-10.842,14.388-11.658,20.468-3.609-.911-8.918-3.669-9.121-12.007,0,0-3.373,12.866,8.624,16.692-.2,2.6-.187,4.161-.187,4.161H385.92a3.757,3.757,0,0,0-2.633-2.732l-.4-7.345-.909-2.938,1.992-.42,3.438,13.436h11.115c-.328-2.37-3.522-3-3.522-3h-2.2l-3.055-10.991-.962-4.818-3.008-11.957,1.573-3.951,1.442.77h9.817" transform="translate(-117.479 360.182)" fill="#ff5722"/><text transform="translate(285 58)" fill="#ff5722" font-size="40" font-family="Gotham-Bold, Gotham" font-weight="700"><tspan x="0" y="0">WhyNot53</tspan></text><line x1="232" transform="translate(270.5 18.5)" fill="none" stroke="#ff5722" stroke-width="3" opacity="0.197"/><line x1="211" transform="translate(291.5 24.5)" fill="none" stroke="#ff5722" stroke-width="3" opacity="0.197"/><path d="M211,0H0" transform="translate(291.5 67.5)" fill="none" stroke="#ff5722" stroke-width="3" opacity="0.197"/><line x1="261" transform="translate(241.5 72.5)" fill="none" stroke="#ff5722" stroke-width="3" opacity="0.197"/></g></svg>