<?xml version="1.0"?>
<svg xmlns="http://www.w3.org/2000/svg" id="Layer_1" enable-background="new 0 0 512 512" height="512px" viewBox="0 0 512 512" width="512px" class=""><g><path d="m464.883 64.267h-417.766c-25.98 0-47.117 21.136-47.117 47.149 0 25.98 21.137 47.117 47.117 47.117h417.766c25.98 0 47.117-21.137 47.117-47.117 0-26.013-21.137-47.149-47.117-47.149z" fill="#6e00b5" data-original="#6E00B5" class="" style="fill:#FF4722" data-old_color="#6e00b5"/><path d="m464.883 64.267c25.98 0 47.117 21.137 47.117 47.149 0 25.98-21.137 47.117-47.117 47.117h-208.883v-94.266z" fill="#500093" data-original="#500093" class="active-path" style="fill:#FF5722" data-old_color="#500093"/><path d="m464.883 208.867h-417.766c-25.98 0-47.117 21.136-47.117 47.149 0 25.98 21.137 47.117 47.117 47.117h417.766c25.98 0 47.117-21.137 47.117-47.117 0-26.013-21.137-47.149-47.117-47.149z" fill="#6e00b5" data-original="#6E00B5" class="" style="fill:#FF4722" data-old_color="#6e00b5"/><path d="m464.883 208.867c25.98 0 47.117 21.137 47.117 47.149 0 25.98-21.137 47.117-47.117 47.117h-208.883v-94.267h208.883z" fill="#500093" data-original="#500093" class="active-path" style="fill:#FF5722" data-old_color="#500093"/><path d="m464.883 353.467h-417.766c-25.98 0-47.117 21.137-47.117 47.149 0 25.98 21.137 47.117 47.117 47.117h417.766c25.98 0 47.117-21.137 47.117-47.117 0-26.012-21.137-47.149-47.117-47.149z" fill="#6e00b5" data-original="#6E00B5" class="" style="fill:#FF4722" data-old_color="#6e00b5"/><path d="m464.883 353.467c25.98 0 47.117 21.137 47.117 47.149 0 25.98-21.137 47.117-47.117 47.117h-208.883v-94.267h208.883z" fill="#500093" data-original="#500093" class="active-path" style="fill:#FF5722" data-old_color="#500093"/></g> </svg>
