<svg height="512" viewBox="0 0 512 512" width="512" xmlns="http://www.w3.org/2000/svg"><g id="Filled_outline" data-name="Filled outline"><g fill="#d65246"><circle cx="176" cy="56" r="32"/><circle cx="336" cy="56" r="32"/><circle cx="176" cy="456" r="32"/><circle cx="336" cy="456" r="32"/><circle cx="56" cy="176" r="32"/><circle cx="56" cy="336" r="32"/><circle cx="456" cy="176" r="32"/><circle cx="456" cy="336" r="32"/></g><rect fill="#348ed8" height="264" rx="24" width="160" x="176" y="128"/><path d="m364.284 260.284-28.284-28.284v80l-27.029-27.03a16.975 16.975 0 0 0 -12-4.97 16.97 16.97 0 0 0 -16.971 16.97 16.967 16.967 0 0 0 4.971 12l27.029 27.03a49.7 49.7 0 0 0 -3.1 49.8l3.1 6.2v8h64v-111.431a40 40 0 0 0 -11.716-28.285z" fill="#fdc8a2"/><path d="m16 336a39.973 39.973 0 0 0 62.042 33.356l64.6 64.6a39.993 39.993 0 1 0 72.558 30.044h81.61a40 40 0 1 0 72.551-30.042l34.8-34.8-11.314-11.314-34.8 34.8a39.972 39.972 0 0 0 -61.242 25.356h-81.605a40.1 40.1 0 0 0 -17.219-25.4l4.652-11.63-14.856-5.942-4.647 11.619a39.795 39.795 0 0 0 -29.167 6l-64.6-64.6a39.795 39.795 0 0 0 6-29.167l59.619-23.847-5.942-14.856-59.64 23.848a40.1 40.1 0 0 0 -25.4-17.22v-81.605a40.1 40.1 0 0 0 25.4-17.22l59.63 23.853 5.942-14.856-59.62-23.852a39.795 39.795 0 0 0 -6-29.167l49.8-49.8-11.309-11.315-49.8 49.8a39.993 39.993 0 1 0 -30.043 72.557v81.61a40.068 40.068 0 0 0 -32 39.19zm320 96a24 24 0 1 1 -24 24 24.028 24.028 0 0 1 24-24zm-160 0a24 24 0 1 1 -24 24 24.028 24.028 0 0 1 24-24zm-144-256a24 24 0 1 1 24 24 24.028 24.028 0 0 1 -24-24zm24 136a24 24 0 1 1 -24 24 24.028 24.028 0 0 1 24-24zm440-136a39.973 39.973 0 0 0 -62.042-33.356l-64.6-64.6a39.993 39.993 0 1 0 -72.553-30.044h-81.605a40.043 40.043 0 1 0 -32.07 47.352l4.647 11.619 14.856-5.942-4.657-11.629a40.1 40.1 0 0 0 17.224-25.4h81.61a40.1 40.1 0 0 0 17.219 25.4l-7.852 19.63 14.855 5.942 7.848-19.619a39.795 39.795 0 0 0 29.167-6l64.6 64.6a39.795 39.795 0 0 0 -6 29.167l-59.619 23.847 5.942 14.856 59.63-23.853a40.1 40.1 0 0 0 25.4 17.23v81.61a40.1 40.1 0 0 0 -25.4 17.22l-23.63-9.453-5.942 14.856 23.619 9.447a39.795 39.795 0 0 0 6 29.167l-15.8 15.8 11.314 11.314 15.8-15.8a39.993 39.993 0 1 0 30.039-72.556v-81.605a40.068 40.068 0 0 0 32-39.2zm-320-96a24 24 0 1 1 24-24 24.028 24.028 0 0 1 -24 24zm160 0a24 24 0 1 1 24-24 24.028 24.028 0 0 1 -24 24zm144 256a24 24 0 1 1 -24-24 24.028 24.028 0 0 1 24 24zm-24-136a24 24 0 1 1 24-24 24.028 24.028 0 0 1 -24 24zm-272-16v184a16.019 16.019 0 0 0 16 16h88v16h-88a32.036 32.036 0 0 1 -32-32v-184zm184 192v-87.432a31.79 31.79 0 0 0 -9.372-22.627l-14.628-14.627v57.372l13.657 13.657-11.314 11.314-16-16-27.03-27.03a8.97 8.97 0 1 0 -12.685 12.687l27.029 27.029a8 8 0 0 1 1 10.095 41.8 41.8 0 0 0 -2.6 41.784l3.1 6.2a7.994 7.994 0 0 1 .843 3.578v8h-16v-6.111l-2.256-4.512a57.851 57.851 0 0 1 .239-52.08l-22.67-22.67a24.971 24.971 0 0 1 35.315-35.313l13.372 13.372v-140.686a16.019 16.019 0 0 0 -16-16h-19.056l-5.789 11.578a8 8 0 0 1 -7.155 4.422h-48a8 8 0 0 1 -7.155-4.422l-5.789-11.578h-19.056a16.019 16.019 0 0 0 -16 16v16h-16v-16a32.036 32.036 0 0 1 32-32h112a32.036 32.036 0 0 1 32 32v76.686l25.941 25.941a47.686 47.686 0 0 1 14.059 33.941v87.432zm-128-24h32v16h-32zm34.343-98.343a25.969 25.969 0 0 0 -36.686 0l-11.314-11.314a41.989 41.989 0 0 1 59.314 0zm24-20.118a59.882 59.882 0 0 0 -84.686 0l-11.314-11.313a75.968 75.968 0 0 1 107.314 0zm-34.343 46.461v16h-16v-16zm-48 0h16v16h-16z"/></g></svg>