<?xml version="1.0"?>
<svg xmlns="http://www.w3.org/2000/svg" xmlns:xlink="http://www.w3.org/1999/xlink" version="1.1" id="Capa_1" x="0px" y="0px" viewBox="0 0 512 512" style="enable-background:new 0 0 512 512;" xml:space="preserve" width="512px" height="512px" class=""><g><g>
	<g>
		<path d="M308.907,167.68c-0.299-1.045-0.768-2.027-1.365-2.923l-21.333-32c-1.984-2.987-5.312-4.757-8.875-4.757h-42.667    c-3.563,0-6.891,1.792-8.875,4.757l-21.333,32c-0.597,0.896-1.045,1.877-1.365,2.923c-0.448,1.557-4.16,15.595,5.397,28.331    c8.619,11.499,24.619,17.323,47.509,17.323s38.891-5.824,47.488-17.301C313.045,183.275,309.355,169.237,308.907,167.68z     M286.443,183.211C282.197,188.885,271.381,192,256,192c-15.211,0-25.984-3.051-30.315-8.619    c-2.453-3.136-2.475-6.784-2.283-8.576l16.96-25.472h31.253l17.003,25.451C288.789,176.576,288.747,180.117,286.443,183.211z" data-original="#000000" class="active-path" data-old_color="#000000" fill="#FF5722"/>
	</g>
</g><g>
	<g>
		<path d="M338.56,205.44c-0.533-0.427-1.173-0.811-1.877-1.152l-30.485-30.485c-4.16-4.16-10.923-4.16-15.083,0    c-4.16,4.16-4.16,10.923,0,15.083l32,32c0.576,0.576,1.216,1.067,1.877,1.493c1.6,3.776,5.675,18.091,5.675,65.621    c0,70.187-38.613,117.333-74.667,117.333S181.333,358.187,181.333,288c0-47.531,4.075-61.845,5.675-65.643    c0.661-0.427,1.301-0.917,1.877-1.493l32-32c4.16-4.16,4.16-10.923,0-15.083c-4.16-4.16-10.923-4.16-15.083,0l-30.485,30.485    c-0.704,0.341-1.344,0.725-1.877,1.152C166.784,210.624,160,224.469,160,288c0,85.653,49.835,138.667,96,138.667    s96-53.013,96-138.645C352,224.491,345.216,210.624,338.56,205.44z" data-original="#000000" class="active-path" data-old_color="#000000" fill="#FF5722"/>
	</g>
</g><g>
	<g>
		<path d="M256,192c-5.888,0-10.667,4.779-10.667,10.667V416c0,5.888,4.779,10.667,10.667,10.667s10.667-4.779,10.667-10.667    V202.667C266.667,196.779,261.888,192,256,192z" data-original="#000000" class="active-path" data-old_color="#000000" fill="#FF5722"/>
	</g>
</g><g>
	<g>
		<path d="M213.333,85.333c-5.888,0-10.667,4.779-10.667,10.667s4.779,10.667,10.667,10.667c5.333,0,10.325,17.728,10.667,32.256    c0.149,5.803,4.885,10.411,10.667,10.411c0.085,0,0.171,0,0.235-0.021c5.888-0.128,10.56-4.992,10.432-10.88    C245.205,133.013,243.349,85.333,213.333,85.333z" data-original="#000000" class="active-path" data-old_color="#000000" fill="#FF5722"/>
	</g>
</g><g>
	<g>
		<path d="M298.667,85.333c-30.016,0-31.872,47.68-32,53.099c-0.128,5.909,4.565,10.773,10.432,10.901c0.085,0,0.171,0,0.235,0    c5.781,0,10.539-4.629,10.667-10.432c0.32-14.507,5.291-32.235,10.667-32.235c5.888,0,10.667-4.779,10.667-10.667    S304.555,85.333,298.667,85.333z" data-original="#000000" class="active-path" data-old_color="#000000" fill="#FF5722"/>
	</g>
</g><g>
	<g>
		<path d="M393.557,219.243c-2.645-5.291-9.024-7.403-14.315-4.779l-42.667,21.333c-5.269,2.645-7.403,9.045-4.779,14.315    c1.877,3.733,5.632,5.888,9.536,5.888c1.6,0,3.221-0.363,4.779-1.109l42.667-21.333    C394.048,230.912,396.181,224.512,393.557,219.243z" data-original="#000000" class="active-path" data-old_color="#000000" fill="#FF5722"/>
	</g>
</g><g>
	<g>
		<path d="M384,298.667h-42.667c-5.888,0-10.667,4.779-10.667,10.667S335.445,320,341.333,320H384    c5.888,0,10.667-4.779,10.667-10.667S389.888,298.667,384,298.667z" data-original="#000000" class="active-path" data-old_color="#000000" fill="#FF5722"/>
	</g>
</g><g>
	<g>
		<path d="M370.197,387.136l-32-32c-4.16-4.16-10.923-4.16-15.083,0c-4.16,4.16-4.16,10.923,0,15.083l32,32    c2.091,2.069,4.821,3.115,7.552,3.115s5.461-1.045,7.531-3.115C374.357,398.059,374.357,391.296,370.197,387.136z" data-original="#000000" class="active-path" data-old_color="#000000" fill="#FF5722"/>
	</g>
</g><g>
	<g>
		<path d="M175.424,235.776l-42.667-21.333c-5.269-2.603-11.669-0.491-14.315,4.779c-2.624,5.269-0.491,11.669,4.779,14.315    l42.667,21.333c1.557,0.768,3.179,1.131,4.779,1.131c3.904,0,7.659-2.155,9.536-5.909    C182.827,244.821,180.693,238.421,175.424,235.776z" data-original="#000000" class="active-path" data-old_color="#000000" fill="#FF5722"/>
	</g>
</g><g>
	<g>
		<path d="M170.667,298.667H128c-5.888,0-10.667,4.779-10.667,10.667S122.112,320,128,320h42.667    c5.888,0,10.667-4.779,10.667-10.667S176.555,298.667,170.667,298.667z" data-original="#000000" class="active-path" data-old_color="#000000" fill="#FF5722"/>
	</g>
</g><g>
	<g>
		<path d="M188.864,355.136c-4.16-4.16-10.923-4.16-15.083,0l-32,32c-4.16,4.16-4.16,10.923,0,15.083    c2.091,2.069,4.821,3.115,7.552,3.115c2.731,0,5.461-1.045,7.531-3.115l32-32C193.024,366.059,193.024,359.296,188.864,355.136z" data-original="#000000" class="active-path" data-old_color="#000000" fill="#FF5722"/>
	</g>
</g><g>
	<g>
		<path d="M472.384,64.448l-213.333-64c-2.005-0.597-4.117-0.597-6.123,0l-213.333,64C35.093,65.792,32,69.952,32,74.667v234.667    c0,94.336,143.829,178.24,220.843,202.197c1.003,0.32,2.091,0.469,3.157,0.469s2.155-0.149,3.157-0.469    C336.171,487.552,480,403.669,480,309.333V74.667C480,69.952,476.907,65.813,472.384,64.448z M458.667,309.333    c0,74.901-118.677,153.664-202.667,180.821c-83.989-27.157-202.667-105.92-202.667-180.821V82.603L256,21.803l202.667,60.8    V309.333z" data-original="#000000" class="active-path" data-old_color="#000000" fill="#FF5722"/>
	</g>
</g></g> </svg>
