<?xml version="1.0"?>
<svg xmlns="http://www.w3.org/2000/svg" viewBox="0 0 512 512" width="512px" height="512px"><g><g id="_06-schedule" data-name="06-schedule"><g id="linear_color" data-name="linear color"><path d="M496,44H442.587a51.988,51.988,0,0,0-101.174,0H322.587a51.988,51.988,0,0,0-101.174,0H202.587a51.988,51.988,0,0,0-101.174,0H80a12.087,12.087,0,0,0-11.662,9.173l-64,264A12,12,0,0,0,16,332H68v44a12,12,0,0,0,12,12H340.871A83.995,83.995,0,0,0,508,376V56A12,12,0,0,0,496,44ZM392,28a28.034,28.034,0,0,1,25.293,16H366.707A28.034,28.034,0,0,1,392,28ZM272,28a28.034,28.034,0,0,1,25.293,16H246.707A28.034,28.034,0,0,1,272,28ZM152,28a28.034,28.034,0,0,1,25.293,16H126.707A28.034,28.034,0,0,1,152,28ZM101.413,68A52.082,52.082,0,0,0,152,108a12,12,0,0,0,0-24,28.034,28.034,0,0,1-25.293-16h94.706A52.082,52.082,0,0,0,272,108a12,12,0,0,0,0-24,28.034,28.034,0,0,1-25.293-16h94.706A52.082,52.082,0,0,0,392,108a12,12,0,0,0,0-24,28.034,28.034,0,0,1-25.293-16h74.036l-13.576,56H75.863L89.438,68ZM70.045,148h351.3L383.98,302.142A83.914,83.914,0,0,0,374.7,308H31.257ZM92,332H352.418a83.458,83.458,0,0,0-11.565,32H92ZM424,436a60.068,60.068,0,0,1-60-60c-.662-32.229,27.736-60.645,60-60a60,60,0,0,1,0,120Zm44-131.516V216a12,12,0,0,0-24,0v78.425A83.855,83.855,0,0,0,424,292a84.822,84.822,0,0,0-13.113,1.015L465.438,68H484V317.292A84.6,84.6,0,0,0,468,304.484Z" data-original="#000000" class="active-path" data-old_color="#000000" fill="#FF5722"/><path d="M260,192h32a12,12,0,0,0,0-24H260a12,12,0,0,0,0,24Z" data-original="#000000" class="active-path" data-old_color="#000000" fill="#FF5722"/><path d="M180,192h32a12,12,0,0,0,0-24H180a12,12,0,0,0,0,24Z" data-original="#000000" class="active-path" data-old_color="#000000" fill="#FF5722"/><path d="M100,192h32a12,12,0,0,0,0-24H100a12,12,0,0,0,0,24Z" data-original="#000000" class="active-path" data-old_color="#000000" fill="#FF5722"/><path d="M340,192h32a12,12,0,0,0,0-24H340a12,12,0,0,0,0,24Z" data-original="#000000" class="active-path" data-old_color="#000000" fill="#FF5722"/><path d="M244,240h32a12,12,0,0,0,0-24H244a12,12,0,0,0,0,24Z" data-original="#000000" class="active-path" data-old_color="#000000" fill="#FF5722"/><path d="M164,240h32a12,12,0,0,0,0-24H164a12,12,0,0,0,0,24Z" data-original="#000000" class="active-path" data-old_color="#000000" fill="#FF5722"/><path d="M84,240h32a12,12,0,0,0,0-24H84a12,12,0,0,0,0,24Z" data-original="#000000" class="active-path" data-old_color="#000000" fill="#FF5722"/><path d="M324,240h32a12,12,0,0,0,0-24H324a12,12,0,0,0,0,24Z" data-original="#000000" class="active-path" data-old_color="#000000" fill="#FF5722"/><path d="M236,288h32a12,12,0,0,0,0-24H236a12,12,0,0,0,0,24Z" data-original="#000000" class="active-path" data-old_color="#000000" fill="#FF5722"/><path d="M156,288h32a12,12,0,0,0,0-24H156a12,12,0,0,0,0,24Z" data-original="#000000" class="active-path" data-old_color="#000000" fill="#FF5722"/><path d="M120,276a12,12,0,0,0-12-12H76a12,12,0,0,0,0,24h32A12,12,0,0,0,120,276Z" data-original="#000000" class="active-path" data-old_color="#000000" fill="#FF5722"/><path d="M448,364H436V352a12,12,0,0,0-24,0v12H400a12,12,0,0,0,0,24h12v12a12,12,0,0,0,24,0V388h12a12,12,0,0,0,0-24Z" data-original="#000000" class="active-path" data-old_color="#000000" fill="#FF5722"/></g></g></g> </svg>
