<?xml version="1.0"?>
<svg xmlns="http://www.w3.org/2000/svg" id="Capa_1" enable-background="new 0 0 512 512" height="512px" viewBox="0 0 512 512" width="512px" class=""><g><g><path d="m196 121c0-32.894-26.584-61-60-61-33.424 0-60 28.112-60 61 0 33.084 26.916 60 60 60s60-26.916 60-60zm-60 30c-16.542 0-30-13.458-30-30 0-16.804 13.738-31 30-31s30 14.196 30 31c0 16.542-13.458 30-30 30z" data-original="#000000" class="active-path" data-old_color="#000000" fill="#FF5722"/><path d="m136 271c74.439 0 135-60.561 135-135 0-74.991-60.561-136-135-136-74.638 0-136 61.379-136 136 0 74.439 61.009 135 136 135zm-44.851-39.877c11.241-12.657 27.446-20.123 44.851-20.123 17.34 0 33.488 7.412 44.724 19.984-13.577 6.419-28.737 10.016-44.724 10.016-16.022 0-31.222-3.546-44.851-9.877zm44.851-201.123c57.897 0 105 47.551 105 106 0 31.079-13.578 59.043-35.107 78.285-16.9-20.857-42.395-33.285-69.893-33.285-27.648 0-53.27 12.565-70.167 33.629-21.961-19.252-35.833-47.364-35.833-78.629 0-58.449 47.551-106 106-106z" data-original="#000000" class="active-path" data-old_color="#000000" fill="#FF5722"/><path d="m436 361c0-33.084-26.916-60-60-60s-60 26.916-60 60 26.916 60 60 60 60-26.916 60-60zm-60 30c-16.542 0-30-13.458-30-30s13.458-30 30-30 30 13.458 30 30-13.458 30-30 30z" data-original="#000000" class="active-path" data-old_color="#000000" fill="#FF5722"/><path d="m376 241c-74.439 0-135 60.561-135 135 0 74.991 60.561 136 135 136 74.479 0 136-61.23 136-136 0-74.439-61.01-135-136-135zm-44.724 230.889c11.427-12.997 27.828-20.889 44.724-20.889 16.956 0 33.414 7.95 44.846 21.031-13.628 6.39-28.826 9.969-44.846 9.969-15.987 0-31.147-3.632-44.724-10.111zm114.832-16.458c-17.074-21.564-42.687-34.431-70.108-34.431-27.274 0-52.76 12.729-69.833 34.084-21.564-19.427-35.167-47.68-35.167-79.084 0-57.897 47.103-105 105-105 58.448 0 106 47.103 106 105 0 31.591-13.897 59.994-35.892 79.431z" data-original="#000000" class="active-path" data-old_color="#000000" fill="#FF5722"/><path d="m91 346v-8.787l19.394 19.394 21.213-21.213-55.607-55.607-55.606 55.606 21.213 21.213 19.393-19.393v8.787c0 74.991 60.561 136 135 136h45v-30h-45c-57.897 0-105-47.552-105-106z" data-original="#000000" class="active-path" data-old_color="#000000" fill="#FF5722"/><path d="m436 166v8.787l-19.394-19.393-21.213 21.213 55.607 55.606 55.606-55.607-21.213-21.213-19.393 19.394v-8.787c0-74.991-60.561-136-135-136h-45v30h45c57.897 0 105 47.551 105 106z" data-original="#000000" class="active-path" data-old_color="#000000" fill="#FF5722"/></g></g> </svg>
