<?xml version="1.0"?>
<svg xmlns="http://www.w3.org/2000/svg" width="512px" height="512px" viewBox="0 0 128 128"><g><g><path d="M98.5,16.514H83.469V1.747A1.75,1.75,0,0,0,81.719,0H46.281a1.749,1.749,0,0,0-1.75,1.75V16.514H29.5a9.761,9.761,0,0,0-9.75,9.75v91.982A9.761,9.761,0,0,0,29.5,128h69a9.761,9.761,0,0,0,9.75-9.75V26.264A9.761,9.761,0,0,0,98.5,16.514Zm-52.219,13.5H94.75V114.5H33.25V30.014ZM48.031,3.5H79.969V26.514H48.031V3.5ZM104.75,118.246a6.257,6.257,0,0,1-6.25,6.25h-69a6.257,6.257,0,0,1-6.25-6.25V26.264a6.257,6.257,0,0,1,6.25-6.25H44.531v6.5H31.5a1.749,1.749,0,0,0-1.75,1.75v87.982A1.749,1.749,0,0,0,31.5,118h65a1.749,1.749,0,0,0,1.75-1.75V28.264a1.749,1.749,0,0,0-1.75-1.75H83.469v-6.5H98.5a6.257,6.257,0,0,1,6.25,6.25Z" data-original="#000000" class="active-path" data-old_color="#000000" fill="#FF5722"/><path d="M58.469,16.756H62.25v3.781a1.75,1.75,0,1,0,3.5,0V16.756h3.781a1.75,1.75,0,0,0,0-3.5H65.75V9.475a1.75,1.75,0,1,0-3.5,0v3.781H58.469a1.75,1.75,0,1,0,0,3.5Z" data-original="#000000" class="active-path" data-old_color="#000000" fill="#FF5722"/><path d="M45.243,59.217a1.751,1.751,0,0,0,2.459-.2l9.751-11.36A1.75,1.75,0,1,0,54.8,45.382L46.178,55.423l-3.547-3a1.75,1.75,0,1,0-2.262,2.672Z" data-original="#000000" class="active-path" data-old_color="#000000" fill="#FF5722"/><path d="M64,50.021H86.5a1.75,1.75,0,0,0,0-3.5H64a1.75,1.75,0,0,0,0,3.5Z" data-original="#000000" class="active-path" data-old_color="#000000" fill="#FF5722"/><path d="M64,57.882H79.25a1.75,1.75,0,0,0,0-3.5H64a1.75,1.75,0,0,0,0,3.5Z" data-original="#000000" class="active-path" data-old_color="#000000" fill="#FF5722"/><path d="M45.243,79.271a1.75,1.75,0,0,0,2.459-.2l9.751-11.359a1.75,1.75,0,0,0-2.656-2.28L46.178,75.477l-3.547-3a1.75,1.75,0,1,0-2.262,2.672Z" data-original="#000000" class="active-path" data-old_color="#000000" fill="#FF5722"/><path d="M64,70.074H86.5a1.75,1.75,0,0,0,0-3.5H64a1.75,1.75,0,0,0,0,3.5Z" data-original="#000000" class="active-path" data-old_color="#000000" fill="#FF5722"/><path d="M64,77.935H79.25a1.75,1.75,0,0,0,0-3.5H64a1.75,1.75,0,0,0,0,3.5Z" data-original="#000000" class="active-path" data-old_color="#000000" fill="#FF5722"/><path d="M45.243,99.324a1.751,1.751,0,0,0,2.459-.2l9.751-11.359a1.75,1.75,0,1,0-2.656-2.28L46.178,95.53l-3.547-3A1.75,1.75,0,1,0,40.369,95.2Z" data-original="#000000" class="active-path" data-old_color="#000000" fill="#FF5722"/><path d="M64,90.128H86.5a1.75,1.75,0,0,0,0-3.5H64a1.75,1.75,0,1,0,0,3.5Z" data-original="#000000" class="active-path" data-old_color="#000000" fill="#FF5722"/><path d="M64,97.989H79.25a1.75,1.75,0,0,0,0-3.5H64a1.75,1.75,0,0,0,0,3.5Z" data-original="#000000" class="active-path" data-old_color="#000000" fill="#FF5722"/></g></g> </svg>
