<?xml version="1.0"?>
<svg xmlns="http://www.w3.org/2000/svg" id="Capa_1" enable-background="new 0 0 512.904 512.904" height="512px" viewBox="0 0 512.904 512.904" width="512px"><g><g><path d="m329.938 321.526c-4.143 0-7.5 3.357-7.5 7.5v123.725c0 24.897-20.256 45.153-45.153 45.153h-200.489c-24.897 0-45.153-20.256-45.153-45.153v-392.598c0-24.897 20.256-45.153 45.153-45.153h200.488c24.897 0 45.153 20.256 45.153 45.153v44.098c0 4.143 3.357 7.5 7.5 7.5s7.5-3.357 7.5-7.5v-44.098c.001-33.169-26.983-60.153-60.152-60.153h-200.489c-33.169 0-60.153 26.984-60.153 60.153v392.598c0 33.169 26.984 60.153 60.153 60.153h200.488c33.169 0 60.153-26.984 60.153-60.153v-123.725c.001-4.142-3.356-7.5-7.499-7.5z" data-original="#000000" class="active-path" data-old_color="#000000" fill="#FF5722"/><path d="m54.142 123.123c-4.143 0-7.5 3.357-7.5 7.5v322.127c0 16.627 13.527 30.154 30.154 30.154h200.488c16.627 0 30.153-13.526 30.153-30.153v-108.234c0-4.143-3.357-7.5-7.5-7.5s-7.5 3.357-7.5 7.5v108.234c0 8.355-6.798 15.153-15.153 15.153h-200.488c-8.356 0-15.154-6.798-15.154-15.154v-322.127c0-4.143-3.357-7.5-7.5-7.5z" data-original="#000000" class="active-path" data-old_color="#000000" fill="#FF5722"/><path d="m250.5 62.501 11.348-17.501h15.436c8.356 0 15.154 6.798 15.154 15.154v44.097c0 4.143 3.357 7.5 7.5 7.5s7.5-3.357 7.5-7.5v-44.097c0-16.627-13.527-30.154-30.154-30.154h-16.117c-4.678 0-8.989 2.344-11.534 6.268l-11.718 18.07c-.128.197-.343.314-.576.314h-120.596c-.233 0-.448-.117-.575-.313l-11.718-18.068c-2.544-3.926-6.857-6.271-11.536-6.271h-16.118c-16.627 0-30.154 13.527-30.154 30.154v38.507c0 4.143 3.357 7.5 7.5 7.5s7.5-3.357 7.5-7.5v-38.507c0-8.356 6.798-15.154 15.154-15.154h15.436l11.35 17.5c2.903 4.479 7.823 7.152 13.161 7.152h120.596c5.335 0 10.254-2.673 13.161-7.151z" data-original="#000000" class="active-path" data-old_color="#000000" fill="#FF5722"/><path d="m213.542 43c4.143 0 7.5-3.357 7.5-7.5s-3.357-7.5-7.5-7.5h-73.77c-4.143 0-7.5 3.357-7.5 7.5s3.357 7.5 7.5 7.5z" data-original="#000000" class="active-path" data-old_color="#000000" fill="#FF5722"/><path d="m463.726 126.751h-5.665c-4.143 0-7.5 3.357-7.5 7.5s3.357 7.5 7.5 7.5h5.665c9.669 0 17.535 7.866 17.535 17.535v113.513c0 9.668-7.866 17.534-17.535 17.534h-150.837c-2.773 0-5.32 1.53-6.622 3.979l-6.187 11.638-5.87-11.521c-1.28-2.514-3.862-4.096-6.683-4.096h-31.74c-9.669 0-17.535-7.866-17.535-17.534v-62.515c0-4.143-3.357-7.5-7.5-7.5s-7.5 3.357-7.5 7.5v62.515c0 17.939 14.595 32.534 32.535 32.534h27.144l4.584 8.998c2.394 4.696 7.154 7.643 12.426 7.688.042 0 .083.001.125.001 5.221-.001 9.977-2.854 12.431-7.472l4.899-9.216h146.33c17.939 0 32.535-14.595 32.535-32.534v-113.512c0-17.939-14.595-32.535-32.535-32.535z" data-original="#000000" class="active-path" data-old_color="#000000" fill="#FF5722"/><path d="m223.252 159.285v19.036c0 4.143 3.357 7.5 7.5 7.5s7.5-3.357 7.5-7.5v-19.036c0-9.668 7.866-17.534 17.535-17.534h170.311c4.143 0 7.5-3.357 7.5-7.5s-3.357-7.5-7.5-7.5h-170.31c-17.94 0-32.536 14.595-32.536 32.534z" data-original="#000000" class="active-path" data-old_color="#000000" fill="#FF5722"/><path d="m416.846 224.058c4.143 0 7.5-3.357 7.5-7.5s-3.357-7.5-7.5-7.5h-5.577c-1.223-7.941-4.364-15.256-8.923-21.468l3.965-3.965c2.929-2.929 2.929-7.678-.001-10.606-2.928-2.928-7.677-2.929-10.606.001l-3.964 3.965c-6.212-4.56-13.527-7.7-21.469-8.923v-5.577c0-4.143-3.357-7.5-7.5-7.5s-7.5 3.357-7.5 7.5v5.577c-7.941 1.223-15.256 4.363-21.468 8.922l-3.965-3.965c-2.93-2.928-7.678-2.928-10.607 0-2.929 2.93-2.929 7.678 0 10.607l3.965 3.965c-4.559 6.211-7.7 13.526-8.923 21.468h-5.576c-4.143 0-7.5 3.357-7.5 7.5s3.357 7.5 7.5 7.5h5.576c1.223 7.942 4.364 15.257 8.923 21.469l-3.965 3.965c-2.929 2.93-2.929 7.678 0 10.607 1.465 1.464 3.385 2.196 5.304 2.196s3.839-.732 5.304-2.196l3.965-3.965c6.211 4.559 13.526 7.699 21.467 8.922v5.577c0 4.143 3.357 7.5 7.5 7.5s7.5-3.357 7.5-7.5v-5.577c7.942-1.223 15.256-4.363 21.468-8.923l3.964 3.965c1.465 1.465 3.384 2.197 5.304 2.197 1.919 0 3.839-.732 5.303-2.196 2.93-2.929 2.93-7.678.001-10.606l-3.965-3.966c4.56-6.212 7.7-13.527 8.923-21.469h5.577zm-54.075 26.571c-18.787 0-34.071-15.284-34.071-34.071 0-18.786 15.284-34.07 34.071-34.07s34.071 15.284 34.071 34.07c0 18.787-15.284 34.071-34.071 34.071z" data-original="#000000" class="active-path" data-old_color="#000000" fill="#FF5722"/><path d="m351.192 198.401h-3.188c-4.143 0-7.5 3.357-7.5 7.5s3.357 7.5 7.5 7.5h3.188c4.143 0 7.5-3.357 7.5-7.5s-3.358-7.5-7.5-7.5z" data-original="#000000" class="active-path" data-old_color="#000000" fill="#FF5722"/><path d="m374.414 220.185h-3.433c-4.143 0-7.5 3.357-7.5 7.5s3.357 7.5 7.5 7.5h3.433c4.143 0 7.5-3.357 7.5-7.5s-3.358-7.5-7.5-7.5z" data-original="#000000" class="active-path" data-old_color="#000000" fill="#FF5722"/><path d="m240.402 400.256-4.202-31.062c-3.517-25.982-25.94-45.576-52.16-45.576-26.219 0-48.643 19.594-52.159 45.576l-4.202 31.062-2.374 4.247c-2.51 4.49-2.454 9.821.149 14.259s7.229 7.087 12.374 7.087h22.146v3.198c0 13.271 10.796 24.066 24.066 24.066s24.066-10.796 24.066-24.066v-3.198h22.146c5.145 0 9.771-2.649 12.374-7.087s2.659-9.769.149-14.259zm-47.295 28.791c0 4.999-4.067 9.066-9.066 9.066s-9.066-4.067-9.066-9.066v-3.198h18.133v3.198zm7.5-18.198h-33.133-28.532l2.524-4.518c.459-.821.759-1.722.886-2.653l4.394-32.472c2.514-18.578 18.548-32.588 37.295-32.588s34.78 14.01 37.294 32.588l4.394 32.472c.126.932.427 1.832.886 2.653l2.524 4.518z" data-original="#000000" class="active-path" data-old_color="#000000" fill="#FF5722"/><path d="m134.604 309.414c-13.956 0-25.311 11.354-25.311 25.311 0 4.143 3.357 7.5 7.5 7.5s7.5-3.357 7.5-7.5c0-5.686 4.625-10.311 10.311-10.311 4.143 0 7.5-3.357 7.5-7.5s-3.357-7.5-7.5-7.5z" data-original="#000000" class="active-path" data-old_color="#000000" fill="#FF5722"/><path d="m134.604 277.013c-31.823 0-57.713 25.89-57.713 57.712 0 4.143 3.357 7.5 7.5 7.5s7.5-3.357 7.5-7.5c0-23.552 19.161-42.712 42.713-42.712 4.143 0 7.5-3.357 7.5-7.5s-3.357-7.5-7.5-7.5z" data-original="#000000" class="active-path" data-old_color="#000000" fill="#FF5722"/></g></g> </svg>
