<?xml version="1.0"?>
<svg xmlns="http://www.w3.org/2000/svg" id="filled_outline" data-name="filled outline" viewBox="0 0 512 512" width="512" height="512"><rect x="352" y="24" width="128" height="152" style="fill:#548aff"/><path d="M384,128a32,32,0,0,0-32,32v16H480V160a32,32,0,0,0-32-32Z" style="fill:#91c0ff"/><rect x="192" y="24" width="128" height="152" style="fill:#548aff"/><path d="M224,128a32,32,0,0,0-32,32v16H320V160a32,32,0,0,0-32-32Z" style="fill:#ffa100"/><rect x="32" y="24" width="128" height="152" style="fill:#548aff"/><path d="M64,128a32,32,0,0,0-32,32v16H160V160a32,32,0,0,0-32-32Z" style="fill:#f5714f"/><path d="M488,440v24a15.99564,15.99564,0,0,1-16,16H40a15.99564,15.99564,0,0,1-16-16V440Z" style="fill:#e0edff"/><path d="M72,232V440H440V232a16,16,0,0,0-16-16H88A16,16,0,0,0,72,232Z" style="fill:#548aff"/><rect x="192" y="296" width="128" height="80" style="fill:#ffc431"/><polygon points="320 352 368 376 368 296 320 320 320 352" style="fill:#ffb401"/><path d="M256,136h0a24,24,0,0,1-24-24v-8l16-16h32v24A24,24,0,0,1,256,136Z" style="fill:#ffceb6"/><path d="M280,88l6.63344-13.26688A12.94424,12.94424,0,0,0,288,68.94427h0A12.94426,12.94426,0,0,0,275.05574,56H256a24,24,0,0,0-24,24v24l16-16Z" style="fill:#c78640"/><path d="M96,136h0a24,24,0,0,1-24-24v-8L88,88h32v24A24,24,0,0,1,96,136Z" style="fill:#ffceb6"/><path d="M416,136h0a24,24,0,0,1-24-24v-8h0a25.88851,25.88851,0,0,0,23.15539-14.31082L416,88h24v24A24,24,0,0,1,416,136Z" style="fill:#ffceb6"/><path d="M120,88V74.42219A18.42218,18.42218,0,0,0,101.57781,56h0A18.42223,18.42223,0,0,0,91.359,59.094L72,72v32L88,88Z" style="fill:#c78640"/><path d="M440,88v0a24,24,0,0,0-24-24h0a24,24,0,0,0-24,24v16h0a25.88851,25.88851,0,0,0,23.15539-14.31082L416,88Z" style="fill:#c78640"/><path d="M488,432H448V232a24.0275,24.0275,0,0,0-24-24h-8v16h8a8.00917,8.00917,0,0,1,8,8V432H80V232a8.00917,8.00917,0,0,1,8-8h8V208H88a24.0275,24.0275,0,0,0-24,24V432H24a8.00039,8.00039,0,0,0-8,8v24a24.0275,24.0275,0,0,0,24,24H472a24.0275,24.0275,0,0,0,24-24V440A8.00039,8.00039,0,0,0,488,432Zm-8,32a8.00917,8.00917,0,0,1-8,8H40a8.00917,8.00917,0,0,1-8-8V448H204.68555l5.65722,5.65723A8.00235,8.00235,0,0,0,216,456h72a8.00235,8.00235,0,0,0,5.65723-2.34277L299.31445,448H480Z"/><circle cx="224" cy="336" r="8"/><circle cx="256" cy="336" r="8"/><circle cx="288" cy="336" r="8"/><path d="M32,184h80v64a8.00039,8.00039,0,0,0,8,8H248v32H192a8.00039,8.00039,0,0,0-8,8v80a8.00039,8.00039,0,0,0,8,8H320a8.00039,8.00039,0,0,0,8-8V364.94434l36.42188,18.21093A7.99951,7.99951,0,0,0,376,376V296a7.99951,7.99951,0,0,0-11.57812-7.15527L328,307.05566V296a8.00039,8.00039,0,0,0-8-8H264V256H392a8.00039,8.00039,0,0,0,8-8V184h80a8.00039,8.00039,0,0,0,8-8V24a8.00039,8.00039,0,0,0-8-8H352a8.00039,8.00039,0,0,0-8,8V176a8.00039,8.00039,0,0,0,8,8h32v56H264V184h56a8.00039,8.00039,0,0,0,8-8V24a8.00039,8.00039,0,0,0-8-8H192a8.00039,8.00039,0,0,0-8,8V176a8.00039,8.00039,0,0,0,8,8h56v56H128V184h32a8.00039,8.00039,0,0,0,8-8V24a8.00039,8.00039,0,0,0-8-8H32a8.00039,8.00039,0,0,0-8,8V176A8.00039,8.00039,0,0,0,32,184ZM360,308.94434v54.11132l-32-16V324.94434ZM312,368H200V304H312ZM472,32v96.022A39.79015,39.79015,0,0,0,448,120h-1.0127A31.95275,31.95275,0,0,0,448,112V88a32,32,0,0,0-64,0v24a31.95275,31.95275,0,0,0,1.0127,8H384a39.79015,39.79015,0,0,0-24,8.022V32Zm-72,79.05859A33.6238,33.6238,0,0,0,420.78613,96H432v16a16,16,0,0,1-32,0Zm0-16.939V88a15.98641,15.98641,0,0,1,29.835-8H416a8.00022,8.00022,0,0,0-7.15527,4.42188L408,86.1123A17.81717,17.81717,0,0,1,400,94.11963ZM360,160a24.0275,24.0275,0,0,1,24-24h10.86816a31.90967,31.90967,0,0,0,42.26368,0H448a24.0275,24.0275,0,0,1,24,24v8H360ZM312,32v96.022A39.79015,39.79015,0,0,0,288,120h-1.0127A31.95275,31.95275,0,0,0,288,112V89.88867l5.79-11.5791A20.94517,20.94517,0,0,0,275.05566,48H256a32.03667,32.03667,0,0,0-32,32v32a31.95275,31.95275,0,0,0,1.0127,8H224a39.79015,39.79015,0,0,0-24,8.022V32ZM279.47852,71.15527,275.05591,80H248a8.00235,8.00235,0,0,0-5.65723,2.34277L240,84.68555V80a16.01833,16.01833,0,0,1,16-16h19.05566a4.945,4.945,0,0,1,4.42286,7.15527ZM240,107.31348,251.31348,96H272v16a16,16,0,0,1-32,0ZM200,160a24.0275,24.0275,0,0,1,24-24h10.86816a31.90967,31.90967,0,0,0,42.26368,0H288a24.0275,24.0275,0,0,1,24,24v8H200Zm-48,8H40v-8a24.0275,24.0275,0,0,1,24-24H74.86816a31.90967,31.90967,0,0,0,42.26368,0H128a24.0275,24.0275,0,0,1,24,24ZM96,128a16.01833,16.01833,0,0,1-16-16v-4.68652L91.31348,96H112v16A16.01833,16.01833,0,0,1,96,128Zm16-48H88a8.00235,8.00235,0,0,0-5.65723,2.34277L80,84.68555v-8.4043L95.79785,65.749A10.42284,10.42284,0,0,1,112,74.42188Zm40-48v96.022A39.79015,39.79015,0,0,0,128,120h-1.0127A31.95275,31.95275,0,0,0,128,112V74.42188A26.42195,26.42195,0,0,0,86.92188,52.4375L67.5625,65.34375A7.99943,7.99943,0,0,0,64,72v40a31.95275,31.95275,0,0,0,1.0127,8H64a39.79015,39.79015,0,0,0-24,8.022V32Z"/></svg>
