<svg id="color" enable-background="new 0 0 24 24" height="512" viewBox="0 0 24 24" width="512" xmlns="http://www.w3.org/2000/svg"><g><g><path d="m8.238 23.998c-.38 0-.76-.073-1.116-.221-.744-.309-1.333-.917-1.615-1.671l-.76-2.024c-.144-.383-.446-.686-.829-.829l-2.025-.76c-.753-.282-1.362-.871-1.67-1.614-.308-.744-.294-1.592.04-2.324l.895-1.969c.169-.372.169-.8 0-1.172l-.896-1.969c-.333-.732-.348-1.58-.04-2.324.309-.743.918-1.332 1.672-1.614l2.024-.76c.384-.144.686-.446.83-.829l.76-2.025c.282-.753.871-1.361 1.615-1.67.744-.308 1.591-.295 2.324.039l1.968.895c.372.168.799.17 1.173 0l1.969-.895c.732-.333 1.58-.348 2.323-.039.744.309 1.333.917 1.615 1.671l.76 2.024c.144.383.446.686.829.829l2.025.76c.753.282 1.362.871 1.67 1.614.308.744.294 1.592-.04 2.324l-.895 1.969c-.169.372-.169.8 0 1.172l.894 1.969c.333.732.348 1.58.04 2.324-.308.743-.917 1.332-1.671 1.614l-2.024.76c-.384.144-.686.446-.83.829l-.76 2.025c-.282.753-.871 1.361-1.615 1.67-.744.308-1.591.295-2.324-.039l-1.968-.895c-.373-.17-.8-.17-1.173 0l-1.969.895c-.381.174-.794.26-1.206.26z" fill="#2196f3"/></g></g><g><g><path d="m14.041 16.171v.72c0 .61-.5 1.11-1.12 1.11h-1.84c-.54 0-1.12-.4-1.12-1.29v-.54z" fill="#607d8b"/></g></g><g><g><path d="m16.5 10.471c0 1.35-.6 2.61-1.65 3.46-.42.34-.69.78-.78 1.24-.02.109-.03.229-.03.34v.66h-4.08v-.76l-.02-.24c-.07-.45-.32-.87-.73-1.19-1.11-.87-1.74-2.18-1.71-3.6.05-2.38 2.04-4.351 4.43-4.38 1.21-.03 2.37.439 3.24 1.3.861.84 1.33 1.97 1.33 3.17z" fill="#ffc107"/></g></g><g><g><path d="m8.239.001c-.38 0-.761.074-1.118.221-.743.309-1.332.918-1.614 1.671l-.76 2.025c-.144.383-.446.686-.83.829l-2.024.76c-.753.282-1.362.871-1.67 1.614-.308.744-.294 1.592.04 2.324l.894 1.969c.169.372.169.8 0 1.172l-.895 1.969c-.333.732-.348 1.58-.04 2.324.308.743.917 1.332 1.67 1.614l2.025.76c.383.144.685.446.829.829l.76 2.024c.282.754.871 1.362 1.615 1.671.356.147.736.221 1.116.221.413 0 .826-.086 1.207-.26l1.969-.895c.187-.084.387-.127.587-.127v-4.715h-.919c-.54 0-1.12-.4-1.12-1.29v-.54h2.039-2.04v-.76l-.02-.24c-.07-.45-.32-.87-.73-1.19-1.11-.87-1.74-2.18-1.71-3.6.05-2.38 2.04-4.351 4.43-4.38.024-.001.047-.001.07-.001v-4.717c-.2 0-.4-.043-.586-.127l-1.969-.894c-.381-.174-.793-.261-1.206-.261z" fill="#1d83d4"/></g></g><g><g><path d="m12 16.171h-2.04v.54c0 .89.58 1.29 1.12 1.29h.92z" fill="#546d79"/></g></g><g><g><path d="m12 6c-.023 0-.046 0-.069.001-2.39.029-4.38 2-4.43 4.38-.03 1.42.6 2.73 1.71 3.6.41.32.66.74.73 1.19l.02.24v.76h2.039z" fill="#dea806"/></g></g></svg>