<?xml version="1.0"?>
<svg xmlns="http://www.w3.org/2000/svg" id="Capa_1" enable-background="new 0 0 512.002 512.002" height="512px" viewBox="0 0 512.002 512.002" width="512px"><g><g><path d="m431.768 0h-351.534c-17.698 0-32.096 14.398-32.096 32.096v319.476c0 17.698 14.398 32.096 32.096 32.096h231.869c4.142 0 7.5-3.358 7.5-7.5s-3.358-7.5-7.5-7.5h-231.869c-9.427 0-17.096-7.669-17.096-17.096v-272.456h385.727v272.456c0 9.427-7.669 17.096-17.096 17.096-4.142 0-7.5 3.358-7.5 7.5s3.358 7.5 7.5 7.5c17.698 0 32.096-14.398 32.096-32.096v-319.476c-.001-17.698-14.399-32.096-32.097-32.096zm-368.63 64.116v-32.02c0-9.427 7.669-17.096 17.096-17.096h351.534c9.427 0 17.096 7.669 17.096 17.096v32.02z" data-original="#000000" class="active-path" data-old_color="#000000" fill="#FF5722"/><path d="m95.71 32.058h-8.015c-4.142 0-7.5 3.358-7.5 7.5s3.358 7.5 7.5 7.5h8.015c4.142 0 7.5-3.358 7.5-7.5s-3.357-7.5-7.5-7.5z" data-original="#000000" class="active-path" data-old_color="#000000" fill="#FF5722"/><path d="m135.783 32.058h-8.015c-4.142 0-7.5 3.358-7.5 7.5s3.358 7.5 7.5 7.5h8.015c4.142 0 7.5-3.358 7.5-7.5s-3.358-7.5-7.5-7.5z" data-original="#000000" class="active-path" data-old_color="#000000" fill="#FF5722"/><path d="m424.306 32.058h-256.465c-4.142 0-7.5 3.358-7.5 7.5s3.358 7.5 7.5 7.5h256.465c4.142 0 7.5-3.358 7.5-7.5s-3.358-7.5-7.5-7.5z" data-original="#000000" class="active-path" data-old_color="#000000" fill="#FF5722"/><path d="m351.074 333.189c-2.257-2.24-5.682-2.813-8.544-1.43-2.864 1.383-4.543 4.421-4.192 7.582l15.957 143.6c.316 2.847 2.227 5.265 4.923 6.232.826.296 1.681.44 2.53.44 1.921 0 3.807-.739 5.231-2.125l28.872-28.091 23.36 48.364c1.294 2.679 3.971 4.24 6.759 4.24 1.094 0 2.206-.241 3.256-.749 3.73-1.801 5.293-6.286 3.492-10.015l-23.36-48.365 39.952-5.15c2.841-.366 5.225-2.319 6.145-5.032.919-2.713.212-5.713-1.821-7.73zm46.045 106.138c-1.609.208-3.108.932-4.271 2.063l-25.339 24.654-11.917-107.239 76.589 76.002z" data-original="#000000" class="active-path" data-old_color="#000000" fill="#FF5722"/><path d="m256.001 343.596c4.142 0 7.5-3.358 7.5-7.5v-8.802c51.201-3.678 92.223-44.7 95.901-95.901h8.803c4.142 0 7.5-3.358 7.5-7.5s-3.358-7.5-7.5-7.5h-8.803c-3.678-51.201-44.7-92.223-95.901-95.901v-8.802c0-4.142-3.358-7.5-7.5-7.5s-7.5 3.358-7.5 7.5v8.802c-51.201 3.678-92.223 44.701-95.901 95.901h-8.803c-4.142 0-7.5 3.358-7.5 7.5s3.358 7.5 7.5 7.5h8.803c3.678 51.201 44.7 92.223 95.901 95.901v8.802c0 4.142 3.358 7.5 7.5 7.5zm88.354-127.203h-17.132c-3.504-33.512-30.21-60.218-63.722-63.722v-17.132c42.924 3.612 77.242 37.929 80.854 80.854zm-95.854-80.855v40.267c0 4.142 3.358 7.5 7.5 7.5s7.5-3.358 7.5-7.5v-8.017c25.228 3.356 45.248 23.377 48.604 48.605h-8.017c-4.142 0-7.5 3.358-7.5 7.5s3.358 7.5 7.5 7.5h8.025c-2.321 17.225-12.534 32.709-27.807 41.545-3.585 2.074-4.81 6.662-2.736 10.248 1.39 2.403 3.909 3.746 6.499 3.746 1.275 0 2.566-.326 3.749-1.01 19.898-11.512 32.999-31.951 35.397-54.528h17.14c-3.612 42.924-37.93 77.242-80.854 80.854v-40.267c0-4.142-3.358-7.5-7.5-7.5s-7.5 3.358-7.5 7.5v8.017c-25.228-3.356-45.248-23.376-48.604-48.604h8.017c4.142 0 7.5-3.358 7.5-7.5s-3.358-7.5-7.5-7.5h-8.025c2.321-17.225 12.534-32.709 27.807-41.545 3.585-2.074 4.81-6.662 2.736-10.248s-6.663-4.81-10.248-2.736c-19.898 11.512-32.999 31.951-35.397 54.529h-17.14c3.612-42.926 37.93-77.243 80.854-80.856zm-80.854 95.855h17.132c3.504 33.511 30.211 60.218 63.722 63.722v17.132c-42.924-3.613-77.242-37.93-80.854-80.854z" data-original="#000000" class="active-path" data-old_color="#000000" fill="#FF5722"/></g></g> </svg>
