<?xml version="1.0"?>
<svg xmlns="http://www.w3.org/2000/svg" height="512px" viewBox="0 0 60 60" width="512px"><g><g id="Page-1" fill="none" fill-rule="evenodd"><g id="053---Speech-Box" fill="rgb(0,0,0)" fill-rule="nonzero"><path id="Shape" d="m55 7h-32.142c-.4545933-1.76068514-2.0395884-2.99318518-3.858-3-.3520427.00487218-.7018362.05700487-1.04.155.5512522-1.21342215 1.7125001-2.0366094 3.04-2.155.5522847 0 1-.44771525 1-1s-.4477153-1-1-1c-3.054 0-5.577 3.06-5.948 7h-2.194c-.4545933-1.76068514-2.0395884-2.99318518-3.858-3-.35204268.00487218-.70183622.05700487-1.04.155.5512522-1.21342215 1.7125001-2.0366094 3.04-2.155.5522847 0 1-.44771525 1-1s-.4477153-1-1-1c-3.054 0-5.577 3.06-5.948 7h-.052c-2.76005315.00330612-4.99669388 2.23994685-5 5v36c.00330612 2.7600532 2.23994685 4.9966939 5 5h32.142c.4545933 1.7606851 2.0395884 2.9931852 3.858 3 .3520427-.0048722.7018362-.0570049 1.04-.155-.5512522 1.2134222-1.7125001 2.0366094-3.04 2.155-.5522847 0-1 .4477153-1 1s.4477153 1 1 1c3.054 0 5.577-3.06 5.948-7h2.194c.4545933 1.7606851 2.0395884 2.9931852 3.858 3 .3520427-.0048722.7018362-.0570049 1.04-.155-.5512522 1.2134222-1.7125001 2.0366094-3.04 2.155-.5522847 0-1 .4477153-1 1s.4477153 1 1 1c3.054 0 5.577-3.06 5.948-7h.052c2.7600532-.0033061 4.9966939-2.2399468 5-5v-36c-.0033061-2.76005315-2.2399468-4.99669388-5-5zm-36-1c1.1045695 0 2 .8954305 2 2s-.8954305 2-2 2-2-.8954305-2-2 .8954305-2 2-2zm-10 0c1.1045695 0 2 .8954305 2 2s-.8954305 2-2 2-2-.8954305-2-2 .8954305-2 2-2zm32 48c-1.1045695 0-2-.8954305-2-2s.8954305-2 2-2 2 .8954305 2 2-.8954305 2-2 2zm10 0c-1.1045695 0-2-.8954305-2-2s.8954305-2 2-2 2 .8954305 2 2-.8954305 2-2 2zm7-6c0 1.6568542-1.3431458 3-3 3h-.142c-.4490235-1.7642024-2.0375517-2.9990647-3.858-2.9990647s-3.4089765 1.2348623-3.858 2.9990647h-2.284c-.4490235-1.7642024-2.0375517-2.9990647-3.858-2.9990647s-3.4089765 1.2348623-3.858 2.9990647h-32.142c-1.65685425 0-3-1.3431458-3-3v-36c0-1.6568542 1.34314575-3 3-3h.142c.44902349 1.7642024 2.03755168 2.9990647 3.858 2.9990647 1.8204483 0 3.4089765-1.2348623 3.858-2.9990647h2.284c.4490235 1.7642024 2.0375517 2.9990647 3.858 2.9990647s3.4089765-1.2348623 3.858-2.9990647h32.142c1.6568542 0 3 1.3431458 3 3z" data-original="#000000" class="active-path" data-old_color="#000000" fill="#FF5722"/><path id="Shape" d="m51 15h-42c-1.65685425 0-3 1.3431458-3 3s1.34314575 3 3 3h42c1.6568542 0 3-1.3431458 3-3s-1.3431458-3-3-3zm0 4h-42c-.55228475 0-1-.4477153-1-1s.44771525-1 1-1h42c.5522847 0 1 .4477153 1 1s-.4477153 1-1 1z" data-original="#000000" class="active-path" data-old_color="#000000" fill="#FF5722"/><path id="Shape" d="m9 29h30c1.6568542 0 3-1.3431458 3-3s-1.3431458-3-3-3h-30c-1.65685425 0-3 1.3431458-3 3s1.34314575 3 3 3zm0-4h30c.5522847 0 1 .4477153 1 1s-.4477153 1-1 1h-30c-.55228475 0-1-.4477153-1-1s.44771525-1 1-1z" data-original="#000000" class="active-path" data-old_color="#000000" fill="#FF5722"/><path id="Shape" d="m51 23h-4c-1.6568542 0-3 1.3431458-3 3s1.3431458 3 3 3h4c1.6568542 0 3-1.3431458 3-3s-1.3431458-3-3-3zm0 4h-4c-.5522847 0-1-.4477153-1-1s.4477153-1 1-1h4c.5522847 0 1 .4477153 1 1s-.4477153 1-1 1z" data-original="#000000" class="active-path" data-old_color="#000000" fill="#FF5722"/><path id="Shape" d="m51 31h-23c-1.6568542 0-3 1.3431458-3 3s1.3431458 3 3 3h23c1.6568542 0 3-1.3431458 3-3s-1.3431458-3-3-3zm0 4h-23c-.5522847 0-1-.4477153-1-1s.4477153-1 1-1h23c.5522847 0 1 .4477153 1 1s-.4477153 1-1 1z" data-original="#000000" class="active-path" data-old_color="#000000" fill="#FF5722"/><path id="Shape" d="m9 37h11c1.6568542 0 3-1.3431458 3-3s-1.3431458-3-3-3h-11c-1.65685425 0-3 1.3431458-3 3s1.34314575 3 3 3zm0-4h11c.5522847 0 1 .4477153 1 1s-.4477153 1-1 1h-11c-.55228475 0-1-.4477153-1-1s.44771525-1 1-1z" data-original="#000000" class="active-path" data-old_color="#000000" fill="#FF5722"/><path id="Shape" d="m31 39h-22c-1.65685425 0-3 1.3431458-3 3s1.34314575 3 3 3h22c1.6568542 0 3-1.3431458 3-3s-1.3431458-3-3-3zm0 4h-22c-.55228475 0-1-.4477153-1-1s.44771525-1 1-1h22c.5522847 0 1 .4477153 1 1s-.4477153 1-1 1z" data-original="#000000" class="active-path" data-old_color="#000000" fill="#FF5722"/></g></g></g> </svg>
