<?xml version="1.0"?>
<svg xmlns="http://www.w3.org/2000/svg" id="Layer_1" enable-background="new 0 0 512 512" height="512px" viewBox="0 0 512 512" width="512px"><g><g><path d="m448 40h-384c-17.106 0-33.181 6.66-45.248 18.74-12.093 12.08-18.752 28.153-18.752 45.26 0 35.29 28.71 64 64 64h16v240c0 35.29 28.71 64 64 64 15.379 0 30.246-5.537 41.864-15.59 5.743-4.97 10.513-10.881 14.136-17.419 3.623 6.538 8.393 12.449 14.136 17.419 11.618 10.053 26.485 15.59 41.864 15.59s30.246-5.537 41.864-15.59c5.743-4.97 10.513-10.881 14.136-17.419 3.623 6.538 8.393 12.449 14.136 17.419 11.618 10.053 26.485 15.59 41.864 15.59 35.29 0 64-28.71 64-64v-240h16c17.106 0 33.181-6.66 45.248-18.74 12.093-12.08 18.752-28.153 18.752-45.26 0-35.29-28.71-64-64-64zm22.621 86.632c-6.035 6.041-14.068 9.368-22.621 9.368h-16v-8c0-8.836-7.163-16-16-16s-16 7.164-16 16v280c0 17.645-14.355 32-32 32-15.654 0-29.25-11.639-31.626-27.074-1.866-12.126-12.117-20.926-24.374-20.926s-22.508 8.8-24.374 20.926c-2.376 15.435-15.972 27.074-31.626 27.074s-29.25-11.639-31.626-27.074c-1.866-12.126-12.117-20.926-24.374-20.926s-22.508 8.8-24.374 20.926c-2.376 15.435-15.972 27.074-31.626 27.074-17.645 0-32-14.355-32-32v-280c0-8.836-7.163-16-16-16s-16 7.164-16 16v8h-16c-17.645 0-32-14.355-32-32 0-8.553 3.327-16.586 9.379-22.632 6.035-6.041 14.068-9.368 22.621-9.368h384c17.645 0 32 14.355 32 32 0 8.553-3.327 16.586-9.379 22.632z" data-original="#000000" class="active-path" data-old_color="#000000" fill="#FF5722"/><path d="m312 336h-112c-8.837 0-16-7.164-16-16s7.163-16 16-16h112c8.837 0 16 7.164 16 16s-7.163 16-16 16z" data-original="#000000" class="active-path" data-old_color="#000000" fill="#FF5722"/><path d="m312 256h-112c-8.837 0-16-7.164-16-16s7.163-16 16-16h112c8.837 0 16 7.164 16 16s-7.163 16-16 16z" data-original="#000000" class="active-path" data-old_color="#000000" fill="#FF5722"/></g></g> </svg>
