<svg id="Capa_1" enable-background="new 0 0 512 512" height="512" viewBox="0 0 512 512" width="512" xmlns="http://www.w3.org/2000/svg"><g><g><path d="m141.852 303.478c0 62.942 51.207 114.149 114.149 114.148 62.941 0 114.148-51.206 114.148-114.148v-94.955c0-62.942-51.207-114.149-114.148-114.148-62.942 0-114.149 51.207-114.149 114.148z" fill="#ffe07d"/></g><g><path d="m363.077 7.5v40.407h101.017v101.016h40.406v-141.423z" fill="#5766cb"/></g><g><path d="m148.923 7.5v40.407h-101.016v101.016h-40.407v-141.423z" fill="#5766cb"/></g><g><path d="m363.077 504.5v-40.406h101.017v-101.017h40.406v141.423z" fill="#5766cb"/></g><g><path d="m148.923 504.5v-40.406h-101.016v-101.017h-40.407v141.423z" fill="#5766cb"/></g><g><g><circle cx="442.032" cy="201.451" fill="#ffe07d" r="16.163"/></g><g><circle cx="442.032" cy="310.549" fill="#ffe07d" r="16.163"/></g><g><circle cx="474.357" cy="256" fill="#ffe07d" r="16.163"/></g></g><g><g><circle cx="69.968" cy="201.451" fill="#ffe07d" r="16.163"/></g><g><circle cx="69.968" cy="310.549" fill="#ffe07d" r="16.163"/></g><g><circle cx="37.643" cy="256" fill="#ffe07d" r="16.163"/></g></g><g><g><path d="m412.356 388.07c-6.706-6.706-17.58-6.706-24.286 0s-6.706 17.58 0 24.286l13.572 13.572 24.286-24.286z" fill="#2b3890"/></g><g><path d="m475.214 419.499c15.385 15.385 15.385 40.33 0 55.715s-40.33 15.385-55.715 0c-5.525-5.525-3.047-3.047-8.572-8.572-15.385-15.385-15.385-40.33 0-55.715s40.33-15.385 55.715 0c5.525 5.525 3.047 3.047 8.572 8.572z" fill="#e28086"/></g><g><path d="m425.928 401.541c5.479 1.887 10.626 5.013 15 9.387l8.572 8.572c15.385 15.385 15.385 40.33 0 55.715-4.374 4.374-9.521 7.5-15 9.387 13.796 4.751 29.703 1.625 40.715-9.387 15.385-15.385 15.385-40.33 0-55.715-5.525-5.525-3.047-3.047-8.572-8.572-11.012-11.012-26.92-14.138-40.715-9.387z" fill="#dd636e"/></g></g><g><path d="m377.65 297.846h12.593l5.312 15.181c1.053 3.008 3.892 5.022 7.079 5.022h16.96c3.145 9.381 12.011 16.162 22.437 16.162 13.048 0 23.663-10.615 23.663-23.662 0-13.048-10.615-23.663-23.663-23.663-10.426 0-19.292 6.781-22.437 16.163h-11.638l-5.312-15.181c-1.053-3.008-3.892-5.022-7.079-5.022h-17.915v-19.346h74.269c3.144 9.382 12.011 16.163 22.437 16.163 13.048 0 23.663-10.615 23.663-23.663s-10.615-23.663-23.663-23.663c-10.426 0-19.292 6.781-22.437 16.163h-74.269v-19.346h17.914c3.188 0 6.026-2.015 7.079-5.022l5.312-15.181h11.638c3.144 9.382 12.011 16.163 22.437 16.163 13.048 0 23.663-10.615 23.663-23.663 0-13.047-10.615-23.662-23.663-23.662-10.426 0-19.292 6.781-22.437 16.162h-16.96c-3.188 0-6.026 2.015-7.079 5.022l-5.312 15.181h-12.592v-5.635c0-67.078-54.572-121.649-121.65-121.649-13.159 0-26.11 2.103-38.491 6.248-3.928 1.315-6.046 5.566-4.73 9.494s5.569 6.043 9.493 4.73c10.844-3.632 22.191-5.473 33.729-5.473 58.808 0 106.65 47.843 106.65 106.649v94.961c0 58.807-47.843 106.649-106.65 106.649s-106.65-47.843-106.65-106.649v-94.959c0-33.906 16.419-66.127 43.92-86.191 3.346-2.441 4.08-7.133 1.639-10.479-2.442-3.346-7.133-4.082-10.479-1.639-31.358 22.877-50.08 59.628-50.08 98.309v5.635h-12.593l-5.313-15.181c-1.053-3.008-3.892-5.022-7.079-5.022h-16.961c-3.145-9.381-12.011-16.162-22.437-16.162-13.047 0-23.663 10.615-23.663 23.662 0 13.048 10.615 23.663 23.663 23.663 10.426 0 19.293-6.781 22.437-16.163h11.638l5.313 15.181c1.053 3.008 3.892 5.022 7.079 5.022h17.914v19.345h-74.269c-3.144-9.382-12.011-16.163-22.437-16.163-13.047 0-23.663 10.615-23.663 23.663s10.615 23.663 23.663 23.663c10.426 0 19.293-6.781 22.437-16.163h74.27v19.346h-17.914c-3.187 0-6.026 2.015-7.079 5.022l-5.313 15.181h-11.638c-3.144-9.382-12.011-16.163-22.437-16.163-13.047 0-23.663 10.615-23.663 23.663 0 13.047 10.615 23.662 23.663 23.662 10.426 0 19.293-6.781 22.437-16.162h16.959c3.187 0 6.026-2.015 7.079-5.022l5.313-15.181h12.593v5.635c0 67.078 54.572 121.649 121.65 121.649s121.65-54.571 121.65-121.649zm64.381 4.04c4.776 0 8.663 3.887 8.663 8.663s-3.887 8.662-8.663 8.662-8.662-3.886-8.662-8.662 3.886-8.663 8.662-8.663zm32.325-54.549c4.776 0 8.663 3.887 8.663 8.663s-3.887 8.663-8.663 8.663-8.662-3.887-8.662-8.663 3.886-8.663 8.662-8.663zm-32.325-54.548c4.776 0 8.663 3.886 8.663 8.662s-3.887 8.663-8.663 8.663-8.662-3.887-8.662-8.663 3.886-8.662 8.662-8.662zm-372.063 17.325c-4.776 0-8.663-3.887-8.663-8.663s3.886-8.662 8.663-8.662 8.663 3.886 8.663 8.662-3.886 8.663-8.663 8.663zm-32.325 54.549c-4.776 0-8.663-3.887-8.663-8.663s3.886-8.663 8.663-8.663 8.663 3.887 8.663 8.663-3.887 8.663-8.663 8.663zm32.325 54.548c-4.776 0-8.663-3.886-8.663-8.662s3.886-8.663 8.663-8.663 8.663 3.887 8.663 8.663-3.886 8.662-8.663 8.662z"/><path d="m166.677 208.522v25.254c0 4.143 3.358 7.5 7.5 7.5s7.5-3.357 7.5-7.5v-25.254c0-20.109 7.939-38.961 22.355-53.08 2.959-2.898 3.008-7.647.11-10.606-2.897-2.959-7.646-3.007-10.606-.11-17.32 16.964-26.859 39.621-26.859 63.796z"/><path d="m174.177 270.724c-4.142 0-7.5 3.357-7.5 7.5v25.254c0 49.253 40.07 89.323 89.323 89.323s89.323-40.07 89.323-89.323v-47.478c0-4.143-3.357-7.5-7.5-7.5s-7.5 3.357-7.5 7.5v47.478c0 40.982-33.341 74.323-74.323 74.323s-74.323-33.341-74.323-74.323v-25.254c0-4.143-3.358-7.5-7.5-7.5z"/><path d="m345.323 208.522c0-49.253-40.07-89.323-89.323-89.323-6.881 0-13.728.787-20.35 2.34-4.033.945-6.536 4.98-5.59 9.014.945 4.031 4.976 6.533 9.014 5.59 5.501-1.289 11.196-1.943 16.926-1.943 40.982 0 74.323 33.341 74.323 74.323v3.03c0 4.143 3.357 7.5 7.5 7.5s7.5-3.357 7.5-7.5z"/><path d="m245.224 344.072c-4.001-1.063-8.112 1.312-9.179 5.314-1.067 4.003 1.312 8.112 5.314 9.18 4.752 1.267 9.677 1.909 14.64 1.909 21.624 0 41.735-12.58 51.238-32.051 1.816-3.722.271-8.212-3.451-10.029-3.723-1.816-8.213-.271-10.029 3.45-7.006 14.354-21.826 23.63-37.758 23.63-3.658.001-7.283-.471-10.775-1.403z"/><path d="m199.002 218.594v84.884c0 7.788 1.552 15.339 4.613 22.443 1.222 2.837 3.987 4.534 6.891 4.534.99 0 1.997-.197 2.964-.614 3.804-1.639 5.559-6.051 3.92-9.855-2.248-5.219-3.388-10.772-3.388-16.508v-84.884c0-4.143-3.358-7.5-7.5-7.5s-7.5 3.357-7.5 7.5z"/><path d="m213.219 182.569c3.18 2.654 7.909 2.232 10.564-.947 8.017-9.595 19.759-15.098 32.217-15.098 23.158 0 41.998 18.84 41.998 41.998v72.731c0 4.143 3.357 7.5 7.5 7.5s7.5-3.357 7.5-7.5v-72.731c0-31.429-25.569-56.998-56.998-56.998-16.915 0-32.853 7.465-43.728 20.48-2.655 3.18-2.231 7.909.947 10.565z"/><path d="m256 183.85c-13.604 0-24.673 11.068-24.673 24.673v25.254c0 4.143 3.358 7.5 7.5 7.5s7.5-3.357 7.5-7.5v-25.254c0-5.334 4.339-9.673 9.673-9.673 3.387 0 6.472 1.735 8.252 4.641 2.164 3.532 6.785 4.642 10.313 2.478 3.532-2.164 4.641-6.782 2.478-10.313-4.529-7.393-12.396-11.806-21.043-11.806z"/><path d="m231.327 303.478c0 13.604 11.068 24.673 24.673 24.673.397 0 .78-.012 1.164-.025 4.14-.152 7.372-3.631 7.22-7.77-.152-4.14-3.628-7.345-7.77-7.221-.202.008-.405.016-.614.016-5.333 0-9.673-4.339-9.673-9.673v-25.254c0-4.143-3.358-7.5-7.5-7.5s-7.5 3.357-7.5 7.5z"/><path d="m273.173 236.378c-4.143 0-7.5 3.357-7.5 7.5v39.396c0 4.143 3.357 7.5 7.5 7.5s7.5-3.357 7.5-7.5v-39.396c0-4.143-3.358-7.5-7.5-7.5z"/><path d="m363.08 55.41h93.51v93.51c0 4.143 3.357 7.5 7.5 7.5h40.41c4.143 0 7.5-3.357 7.5-7.5v-24.75c0-4.143-3.357-7.5-7.5-7.5s-7.5 3.357-7.5 7.5v17.25h-25.41v-93.51c0-4.143-3.357-7.5-7.5-7.5h-93.51v-25.41h126.42v74.17c0 4.143 3.357 7.5 7.5 7.5s7.5-3.357 7.5-7.5v-81.67c0-4.143-3.357-7.5-7.5-7.5h-141.42c-4.143 0-7.5 3.357-7.5 7.5v40.41c0 4.143 3.358 7.5 7.5 7.5z"/><path d="m7.5 156.423h40.407c4.142 0 7.5-3.357 7.5-7.5v-93.517h93.516c4.142 0 7.5-3.357 7.5-7.5v-40.406c0-4.143-3.358-7.5-7.5-7.5h-141.423c-4.142 0-7.5 3.357-7.5 7.5v141.423c0 4.142 3.358 7.5 7.5 7.5zm7.5-141.423h126.423v25.406h-93.516c-4.142 0-7.5 3.357-7.5 7.5v93.517h-25.407z"/><path d="m148.92 456.59h-35.81c-4.142 0-7.5 3.357-7.5 7.5s3.358 7.5 7.5 7.5h28.31v25.41h-126.42v-126.42h25.41v93.51c0 4.143 3.358 7.5 7.5 7.5h30.2c4.142 0 7.5-3.357 7.5-7.5s-3.358-7.5-7.5-7.5h-22.7v-93.51c0-4.143-3.358-7.5-7.5-7.5h-40.41c-4.142 0-7.5 3.357-7.5 7.5v141.42c0 4.143 3.358 7.5 7.5 7.5h141.42c4.142 0 7.5-3.357 7.5-7.5v-40.41c0-4.143-3.358-7.5-7.5-7.5z"/><path d="m512 363.077c0-4.143-3.357-7.5-7.5-7.5h-40.406c-4.143 0-7.5 3.357-7.5 7.5v11.393c-1.139.347-2.212.968-3.112 1.868l-15.57 15.571c-3.368.061-6.677.474-9.886 1.224l-10.366-10.367c-9.619-9.619-25.273-9.619-34.893 0-9.619 9.62-9.619 25.272 0 34.894l10.367 10.367c-.75 3.208-1.162 6.515-1.224 9.882l-15.572 15.572c-.9.901-1.521 1.974-1.868 3.112h-11.393c-4.143 0-7.5 3.357-7.5 7.5v40.407c0 4.143 3.357 7.5 7.5 7.5h141.423c4.143 0 7.5-3.357 7.5-7.5zm-15 7.5v53.672l-5.975 5.975c-2.156-5.5-5.361-10.576-9.514-14.986l5.436-5.436c2.929-2.929 2.929-7.678-.001-10.606-2.928-2.928-7.677-2.929-10.606.001l-4.745 4.746v-33.365h25.405zm-49.644 108.676c-8.52 0-16.529-3.317-22.554-9.343l-8.571-8.571c-6.025-6.024-9.343-14.034-9.343-22.554 0-8.521 3.317-16.529 9.343-22.555 6.024-6.024 14.033-9.342 22.554-9.342 8.52 0 16.529 3.317 22.554 9.343l8.571 8.571c6.025 6.024 9.343 14.034 9.343 22.554 0 8.521-3.317 16.529-9.343 22.555-6.024 6.025-14.033 9.342-22.554 9.342zm-53.982-72.199c-3.771-3.772-3.771-9.909 0-13.68 3.77-3.772 9.907-3.77 13.679-.001l6.12 6.12c-2.69 1.761-5.221 3.805-7.547 6.131-2.327 2.326-4.371 4.859-6.132 7.548zm-22.797 64.54h33.365l-4.746 4.745c-2.93 2.929-2.93 7.678-.001 10.606 1.465 1.465 3.384 2.197 5.304 2.197 1.919 0 3.839-.732 5.303-2.196l5.436-5.436c4.41 4.153 9.487 7.358 14.986 9.514l-5.975 5.976h-53.672zm74.887 25.406 2.768-2.768c12.199-.223 23.635-5.064 32.284-13.714 8.651-8.65 13.493-20.087 13.715-32.285l2.768-2.768v51.535z"/></g></g></svg>